<?xml version="1.0" standalone="no"?>
<!DOCTYPE svg PUBLIC "-//W3C//DTD SVG 20010904//EN"
 "http://www.w3.org/TR/2001/REC-SVG-20010904/DTD/svg10.dtd">
<svg version="1.0" xmlns="http://www.w3.org/2000/svg"
 width="700.000000pt" height="700.000000pt" viewBox="0 0 700.000000 700.000000"
 preserveAspectRatio="xMidYMid meet">
<metadata>
Created by potrace 1.11, written by Peter Selinger 2001-2013
</metadata>
<g transform="translate(0.000000,700.000000) scale(0.100000,-0.100000)"
fill="#000000" stroke="none">
<path d="M3350 6984 c-166 -35 -327 -133 -435 -265 -48 -57 -98 -152 -132
-246 l-28 -78 -5 -2102 -5 -2102 -76 -70 c-129 -119 -196 -217 -312 -455 -10
-22 -47 -148 -53 -186 -3 -14 -7 -31 -9 -38 -6 -17 -19 -165 -19 -217 1 -407
207 -790 545 -1016 144 -96 315 -164 479 -192 111 -19 342 -15 431 6 37 9 78
18 90 21 13 2 51 14 84 25 302 107 566 347 704 642 169 361 149 785 -54 1134
-48 83 -149 207 -226 279 l-74 67 -5 2092 c-3 1151 -9 2108 -14 2127 -57 244
-245 458 -476 542 -121 44 -291 58 -410 32z m293 -354 c90 -35 176 -110 217
-190 43 -84 49 -130 50 -385 l1 -245 -196 0 c-172 0 -200 -2 -233 -19 -45 -23
-67 -46 -82 -86 -29 -77 -4 -159 62 -203 41 -27 42 -27 245 -30 l203 -3 0 -88
0 -89 -196 -1 c-215 -1 -242 -7 -289 -62 -43 -52 -46 -151 -6 -208 12 -16 41
-39 64 -50 39 -19 61 -21 235 -21 l192 0 0 -163 0 -163 -410 0 -411 0 3 856 3
855 24 58 c55 139 180 236 331 261 45 7 143 -5 193 -24z"/>
</g>
</svg>
