<?xml version="1.0" standalone="no"?>
<!DOCTYPE svg PUBLIC "-//W3C//DTD SVG 1.1//EN" "http://www.w3.org/Graphics/SVG/1.1/DTD/svg11.dtd" >
<svg xmlns="http://www.w3.org/2000/svg" xmlns:xlink="http://www.w3.org/1999/xlink" version="1.1">
<metadata>
Created by FontForge 20161116 at Sun Apr 21 23:45:53 2013
 By Jimmy Warting
Copyright (c) 2013 by Lukas Bischoff. All rights reserved.
</metadata>
<defs>
<font id="artillweathericons" horiz-adv-x="677" >
  <font-face 
    font-family="artill clean weather icons"
    font-weight="400"
    font-stretch="normal"
    units-per-em="1000"
    panose-1="0 0 5 0 0 0 0 0 0 0"
    ascent="800"
    descent="-200"
    x-height="432"
    cap-height="402"
    bbox="0 -260.925 1000 700"
    underline-thickness="50"
    underline-position="-100"
    unicode-range="U+0020-203A"
  />
<missing-glyph horiz-adv-x="500" 
d="M0 0v700h500v-700h-500zM250 395l170 255h-340zM280 350l170 -255v510zM80 50h340l-170 255zM50 605v-510l170 255z" />
    <glyph glyph-name=".notdef" horiz-adv-x="500" 
d="M0 0v700h500v-700h-500zM250 395l170 255h-340zM280 350l170 -255v510zM80 50h340l-170 255zM50 605v-510l170 255z" />
    <glyph glyph-name="A" unicode="A" horiz-adv-x="849" 
d="M525 561v-57c0 -14 -10 -24 -24 -24c-13 0 -23 10 -23 24v57c0 13 10 23 23 23c14 0 24 -10 24 -23zM309 445l-18 18c-9 9 -9 24 0 34c9 9 24 9 34 0l17 -18c10 -9 10 -24 0 -34s-22 -9 -33 0zM712 463l-40 -40c-11 -9 -23 -9 -34 0c-9 9 -9 24 0 34l41 40c9 9 24 9 33 0
s9 -24 0 -34zM489 0h-302c-76 0 -137 62 -137 138c0 65 44 120 106 134c17 75 83 130 162 130c27 0 53 -6 75 -18c28 30 67 48 108 48c81 0 146 -65 146 -146c0 -34 -11 -66 -32 -92c7 -17 12 -36 12 -56c0 -76 -62 -138 -138 -138zM480 275h9c38 0 72 -15 97 -40
c9 15 14 33 14 51c0 55 -44 99 -99 99c-26 0 -50 -11 -68 -28c22 -22 39 -50 47 -82zM187 47h302c50 0 90 41 90 91c0 49 -40 90 -90 90h-45c-3 0 -5 2 -6 5l-2 16c-6 60 -57 106 -118 106c-60 0 -111 -46 -118 -106l-2 -15c0 -3 -2 -5 -5 -5l-14 -1c-47 -5 -82 -43 -82 -90
c0 -50 41 -91 90 -91zM719 310h57c13 0 23 -11 23 -24s-10 -23 -23 -23h-57c-13 0 -24 10 -24 23s11 24 24 24zM694 127l18 -18c9 -9 9 -24 0 -34c-9 -9 -24 -9 -33 0l-18 18c-9 10 -9 25 0 34s24 9 33 0z" />
    <glyph glyph-name="B" unicode="B" horiz-adv-x="1050" 
d="M725 559v-57c0 -13 -10 -23 -23 -23s-24 10 -24 23v57c0 13 11 24 24 24s23 -11 23 -24zM913 462l-41 -40c-4 -5 -10 -7 -16 -7c-7 0 -13 2 -17 7c-9 9 -9 24 0 33l40 41c9 9 24 9 34 0c9 -10 9 -25 0 -34zM509 444l-18 18c-9 9 -9 24 0 33c10 9 25 9 34 0l18 -18
c9 -9 9 -24 0 -33c-5 -5 -11 -7 -17 -7s-12 2 -17 7zM300 170h-39c-4 0 -5 2 -4 6c14 48 53 85 100 96c17 75 84 130 163 130c27 0 52 -6 75 -18c27 30 66 47 107 47c80 0 146 -66 146 -146c0 -34 -12 -66 -32 -91c8 -17 12 -36 12 -56c0 -76 -62 -138 -138 -138h-192
c-3 0 -5 2 -5 5v37c0 3 2 5 5 5h192c50 0 91 41 91 91c0 49 -41 90 -91 90h-45c-3 0 -5 2 -5 5l-2 16c-7 60 -58 106 -118 106c-61 0 -112 -46 -118 -106l-2 -16c0 -3 -2 -5 -5 -5h-15c-33 -4 -61 -25 -74 -54c-2 -3 -3 -4 -6 -4zM681 275h9c38 0 72 -15 97 -40
c9 15 13 32 13 50c0 54 -44 98 -98 98c-26 0 -50 -9 -68 -26c23 -22 39 -50 47 -82zM919 309h57c13 0 24 -11 24 -24s-11 -24 -24 -24h-57c-13 0 -23 11 -23 24s10 24 23 24zM895 125l18 -17c9 -10 9 -25 0 -34c-5 -4 -11 -7 -17 -7s-12 3 -17 7l-18 18c-9 9 -9 24 0 33
c9 10 24 10 34 0zM512 84h-366c-13 0 -23 11 -23 24s10 24 23 24h366c13 0 24 -11 24 -24s-11 -24 -24 -24zM73 47h366c13 0 24 -10 24 -23s-11 -24 -24 -24h-366c-13 0 -23 11 -23 24s10 23 23 23zM196 -40h366c13 0 23 -11 23 -24s-10 -24 -23 -24h-366
c-13 0 -24 11 -24 24s11 24 24 24z" />
    <glyph glyph-name="C" unicode="C" horiz-adv-x="878" 
d="M681 275h9c76 0 138 -62 138 -138s-62 -137 -138 -137h-192c-3 0 -5 2 -5 5v37c0 3 2 5 5 5h192c50 0 91 41 91 90c0 50 -41 91 -91 91h-45c-3 0 -5 2 -5 5l-2 16c-7 60 -57 105 -118 105s-112 -45 -118 -106l-2 -14c0 -4 -1 -5 -5 -5l-15 -2c-33 -3 -61 -24 -73 -54
c-2 -3 -3 -4 -6 -4h-40c-4 0 -5 2 -4 6v1c14 48 53 84 101 95c16 76 83 131 162 131c77 0 143 -53 161 -127zM147 84h366c13 0 23 11 23 24s-10 23 -23 23h-366c-13 0 -24 -10 -24 -23s11 -24 24 -24zM74 0h366c13 0 23 10 23 23c0 14 -10 24 -23 24h-366
c-13 0 -24 -10 -24 -24c0 -13 11 -23 24 -23zM196 -87h366c13 0 24 11 24 24s-11 23 -24 23h-366c-13 0 -24 -10 -24 -23s11 -24 24 -24z" />
    <glyph glyph-name="D" unicode="D" horiz-adv-x="977" 
d="M653 561v-57c0 -13 -11 -23 -24 -23s-24 10 -24 23v57c0 13 11 24 24 24s24 -11 24 -24zM840 464l-41 -40c-8 -10 -24 -9 -33 0s-9 24 0 33l40 41c9 9 24 9 34 0c9 -10 9 -25 0 -34zM436 446l-17 18c-10 9 -10 24 0 33c9 10 24 10 33 0l18 -18c9 -9 9 -24 0 -33
c-5 -5 -11 -7 -17 -7s-12 2 -17 7zM184 176v1c14 47 53 84 101 95c16 75 83 130 162 130c26 0 52 -6 74 -17c27 30 66 48 108 48c80 0 146 -66 146 -146c0 -34 -12 -66 -32 -92c8 -17 12 -37 12 -57c0 -76 -62 -138 -138 -138h-192c-3 0 -5 2 -5 5v38c0 3 2 5 5 5h192
c50 0 91 40 91 90s-41 90 -91 90h-45c-3 0 -5 2 -5 5l-2 16c-7 61 -57 106 -118 106s-112 -46 -118 -106l-2 -14c0 -4 -1 -5 -5 -5l-15 -2c-33 -3 -61 -24 -73 -54c-2 -3 -3 -4 -6 -4h-40c-4 0 -5 2 -4 6zM608 276h9c38 0 72 -15 97 -40c9 15 14 33 14 51
c0 54 -45 99 -99 99c-26 0 -51 -11 -69 -28c23 -22 41 -50 48 -82zM846 311h57c13 0 24 -11 24 -24s-11 -24 -24 -24h-57c-13 0 -23 11 -23 24s10 24 23 24zM440 85h-366c-13 0 -24 10 -24 23s11 24 24 24h366c14 0 27 12 27 27s-13 27 -27 27c-8 0 -14 -3 -19 -8
c-10 -9 -25 -9 -34 0s-9 24 0 34c14 14 33 21 53 21c41 0 74 -33 74 -74s-33 -74 -74 -74zM822 128l18 -18c9 -10 9 -25 0 -34c-11 -9 -23 -9 -34 0l-18 18c-9 9 -9 24 0 34c10 9 25 9 34 0zM74 48h224c41 0 74 -34 74 -75s-33 -74 -74 -74c-20 0 -39 8 -53 22
c-9 9 -9 24 0 33s24 9 34 0c5 -5 11 -8 19 -8c14 0 27 12 27 27s-13 27 -27 27h-224c-13 0 -24 11 -24 24s11 24 24 24z" />
    <glyph glyph-name="E" unicode="E" horiz-adv-x="898" 
d="M668 276h9c76 0 138 -62 138 -138s-62 -138 -138 -138h-192c-3 0 -5 2 -5 5v38c0 3 2 5 5 5h192c50 0 91 40 91 90s-41 90 -91 90h-45c-3 0 -5 2 -5 5l-2 16c-7 61 -57 106 -118 106s-112 -46 -118 -106l-2 -14c0 -4 -1 -5 -5 -5l-15 -2c-33 -3 -61 -24 -73 -54
c-2 -3 -3 -4 -6 -4h-40c-4 0 -5 2 -4 6v1c14 47 53 84 101 95c16 75 83 130 162 130c78 0 144 -53 161 -126zM134 85h366c41 0 74 33 74 74s-33 74 -74 74c-20 0 -39 -7 -53 -21c-9 -10 -9 -25 0 -34s24 -9 34 0c5 5 11 8 19 8c14 0 27 -12 27 -27s-13 -27 -27 -27h-366
c-13 0 -24 -11 -24 -24s11 -23 24 -23zM134 0h224c14 0 27 -12 27 -27s-13 -27 -27 -27c-8 0 -14 3 -19 8c-10 9 -25 9 -34 0s-9 -24 0 -33c14 -14 33 -22 53 -22c41 0 74 33 74 74s-33 75 -74 75h-224c-13 0 -24 -11 -24 -24s11 -24 24 -24z" />
    <glyph glyph-name="F" unicode="F" horiz-adv-x="850" 
d="M525 561v-57c0 -13 -10 -24 -23 -24s-24 11 -24 24v57c0 13 11 23 24 23s23 -10 23 -23zM309 445l-18 18c-9 9 -9 24 0 34c9 9 24 9 34 0l18 -18c9 -9 9 -24 0 -34c-11 -9 -23 -9 -34 0zM712 463l-40 -40c-11 -9 -24 -9 -33 0c-10 9 -10 24 0 34l40 40c9 9 24 9 33 0
c10 -9 10 -24 0 -34zM188 42v-37c0 -3 -2 -5 -5 -5c-74 3 -133 64 -133 138c0 65 45 120 106 134c17 75 84 130 163 130c27 0 52 -6 75 -18c27 30 66 48 108 48c80 0 146 -65 146 -146c0 -34 -12 -66 -33 -92c8 -17 12 -36 12 -56c0 -74 -59 -135 -133 -138c-3 0 -5 2 -5 5
v37c0 3 2 5 5 5c48 3 86 43 86 91c0 49 -41 90 -91 90h-45c-3 0 -5 2 -5 5l-2 16c-7 60 -58 106 -118 106c-61 0 -112 -46 -118 -106l-2 -15c0 -3 -2 -5 -5 -5l-15 -1c-46 -5 -82 -43 -82 -90c0 -48 38 -88 86 -91c3 0 5 -2 5 -5zM480 275h9c38 0 72 -15 97 -40
c9 16 14 33 14 51c0 55 -44 99 -98 99c-27 0 -51 -10 -69 -28c23 -22 39 -50 47 -82zM719 310h57c13 0 24 -11 24 -24s-11 -23 -24 -23h-57c-13 0 -24 10 -24 23s11 24 24 24zM392 188c0 -14 -12 -26 -26 -26c-15 0 -27 12 -27 26c0 18 27 45 27 45s26 -27 26 -45zM255 181
c0 0 39 -40 39 -67c0 -22 -17 -39 -39 -39s-40 17 -40 39c0 27 40 67 40 67zM695 127l17 -18c10 -9 10 -24 0 -33c-8 -10 -25 -10 -33 0l-18 17c-9 10 -9 25 0 34s24 9 34 0zM363 106c0 0 65 -59 65 -103c0 -36 -29 -65 -65 -65s-65 29 -65 65c0 44 65 103 65 103z" />
    <glyph glyph-name="G" unicode="G" 
d="M489 42v-37c0 -3 2 -5 5 -5c74 3 133 64 133 138c0 76 -62 137 -138 137h-9c-18 74 -84 127 -161 127c-79 0 -146 -55 -163 -130c-61 -14 -106 -69 -106 -134c0 -74 59 -135 133 -138c3 0 5 2 5 5v37c0 3 -2 5 -5 5c-48 3 -86 43 -86 91c0 47 36 88 82 90l15 1
c3 0 5 2 5 5l2 15c6 60 57 106 118 106c60 0 112 -46 118 -106l2 -16c0 -3 2 -5 5 -5h45c50 0 91 -41 91 -90c0 -48 -38 -88 -86 -91c-3 0 -5 -2 -5 -5zM392 188c0 18 -26 45 -26 45s-27 -27 -27 -45c0 -14 12 -26 27 -26c14 0 26 12 26 26zM294 114c0 27 -39 67 -39 67
s-40 -40 -40 -67c0 -22 18 -39 40 -39s39 17 39 39zM428 3c0 44 -65 103 -65 103s-65 -59 -65 -103c0 -36 29 -65 65 -65s65 29 65 65z" />
    <glyph glyph-name="H" unicode="H" horiz-adv-x="850" 
d="M525 560v-57c0 -13 -10 -23 -23 -23s-24 10 -24 23v57c0 13 11 24 24 24s23 -11 23 -24zM712 463l-40 -40c-9 -12 -27 -7 -33 0c-10 9 -10 24 0 33l40 41c9 9 24 9 33 0c10 -10 10 -24 0 -34zM309 445l-18 18c-9 9 -9 24 0 33c10 10 25 10 34 0l18 -17c9 -10 9 -25 0 -34
c-12 -12 -27 -7 -34 0zM188 42v-37c0 -3 -2 -5 -5 -5c-74 3 -133 64 -133 137c0 66 45 120 106 135c17 75 84 130 163 130c27 0 52 -6 75 -18c27 30 66 48 108 48c80 0 146 -66 146 -146c0 -34 -12 -66 -33 -92c8 -17 12 -36 12 -57c0 -73 -59 -134 -133 -137
c-3 0 -5 2 -5 5v37c0 3 2 5 5 5c48 3 86 43 86 90c0 50 -41 91 -91 91h-45c-3 0 -5 2 -5 5l-2 16c-6 60 -58 106 -118 106c-61 0 -112 -46 -118 -107l-2 -14c0 -4 -1 -5 -5 -5l-15 -2c-46 -5 -82 -43 -82 -90s38 -87 86 -90c3 0 5 -2 5 -5zM480 275h9c38 0 72 -15 97 -40
c9 15 14 33 14 51c0 54 -44 99 -98 99c-26 0 -51 -11 -69 -28c23 -22 39 -50 47 -82zM719 310h57c13 0 24 -11 24 -24s-11 -24 -24 -24h-57c-13 0 -24 11 -24 24s11 24 24 24zM695 127l17 -18c10 -9 10 -24 0 -34s-22 -9 -33 0l-18 18c-9 9 -9 24 0 34c9 9 24 9 34 0z
M339 94c13 0 24 -10 24 -23s-11 -23 -24 -23c-12 0 -23 10 -23 23s11 23 23 23zM250 47c13 0 23 -11 23 -23c0 -13 -10 -24 -23 -24s-23 11 -23 24c0 12 10 23 23 23zM429 47c13 0 23 -11 23 -23c0 -13 -10 -24 -23 -24s-23 11 -23 24c0 12 10 23 23 23zM339 -6
c13 0 24 -11 24 -24s-11 -23 -24 -23c-12 0 -23 10 -23 23s11 24 23 24zM250 -54c13 0 23 -10 23 -23s-10 -23 -23 -23s-23 10 -23 23s10 23 23 23zM429 -54c13 0 23 -10 23 -23s-10 -23 -23 -23s-23 10 -23 23s10 23 23 23zM339 -108c13 0 24 -11 24 -24s-11 -23 -24 -23
c-12 0 -23 10 -23 23s11 24 23 24z" />
    <glyph glyph-name="I" unicode="I" 
d="M489 42v-37c0 -3 2 -5 5 -5c74 3 133 64 133 137c0 76 -62 138 -138 138h-9c-18 74 -84 127 -161 127c-79 0 -146 -55 -163 -130c-61 -15 -106 -69 -106 -135c0 -73 59 -134 133 -137c3 0 5 2 5 5v37c0 3 -2 5 -5 5c-48 3 -86 43 -86 90s36 86 82 90l15 2c4 0 5 1 5 5
l2 14c6 61 57 107 118 107c60 0 111 -46 118 -106l2 -16c0 -3 2 -5 5 -5h45c50 0 91 -41 91 -91c0 -47 -38 -87 -86 -90c-3 0 -5 -2 -5 -5zM363 71c0 13 -11 23 -24 23c-12 0 -23 -10 -23 -23s11 -23 23 -23c13 0 24 10 24 23zM273 24c0 12 -10 23 -23 23s-23 -11 -23 -23
c0 -13 10 -24 23 -24s23 11 23 24zM452 24c0 12 -10 23 -23 23s-23 -11 -23 -23c0 -13 10 -24 23 -24s23 11 23 24zM363 -30c0 13 -11 24 -24 24c-12 0 -23 -11 -23 -24s11 -23 23 -23c13 0 24 10 24 23zM273 -77c0 13 -10 23 -23 23s-23 -10 -23 -23s10 -23 23 -23
s23 10 23 23zM452 -77c0 13 -10 23 -23 23s-23 -10 -23 -23s10 -23 23 -23s23 10 23 23zM363 -132c0 13 -11 24 -24 24c-12 0 -23 -11 -23 -24s11 -23 23 -23c13 0 24 10 24 23z" />
    <glyph glyph-name="J" unicode="J" horiz-adv-x="850" 
d="M525 560v-57c0 -13 -10 -23 -23 -23s-24 10 -24 23v57c0 14 11 24 24 24s23 -10 23 -24zM309 445l-18 18c-9 9 -9 24 0 34c10 9 25 9 34 0l18 -18c9 -10 9 -25 0 -34c-11 -9 -23 -9 -34 0zM712 463l-40 -40c-9 -12 -27 -7 -33 0c-10 9 -10 24 0 34l40 40c9 9 24 9 33 0
c10 -9 10 -24 0 -34zM188 42v-37c0 -3 -2 -5 -5 -5c-74 3 -133 64 -133 138c0 65 45 120 106 134c17 75 84 130 163 130c27 0 52 -6 75 -18c27 30 66 48 108 48c80 0 146 -65 146 -146c0 -34 -12 -66 -33 -92c8 -17 12 -36 12 -56c0 -74 -59 -135 -133 -138c-3 0 -5 2 -5 5
v37c0 3 2 5 5 5c48 3 86 43 86 91c0 49 -41 90 -91 90h-45c-3 0 -5 2 -5 5l-2 16c-7 60 -58 106 -118 106c-61 0 -112 -46 -118 -106l-2 -15c0 -3 -2 -5 -5 -5l-15 -1c-46 -5 -82 -43 -82 -90c0 -48 38 -88 86 -91c3 0 5 -2 5 -5zM480 275h9c38 0 72 -15 97 -40
c9 15 14 33 14 51c0 55 -44 99 -98 99c-26 0 -51 -11 -69 -28c23 -22 39 -50 47 -82zM719 310h57c13 0 24 -11 24 -24s-11 -24 -24 -24h-57c-13 0 -24 11 -24 24s11 24 24 24zM190 -84l55 202c4 12 17 20 29 16c13 -3 20 -16 17 -29l-55 -201c-4 -15 -14 -20 -29 -17
c-13 4 -20 17 -17 29zM262 -168l78 286c3 12 16 20 29 16c12 -3 20 -16 16 -29l-78 -286c-2 -11 -12 -21 -27 -17c-15 3 -22 17 -18 30zM378 -84l55 202c3 12 16 20 29 16c12 -3 20 -16 16 -29l-55 -201c-3 -15 -17 -20 -29 -17c-12 4 -20 17 -16 29zM695 127l17 -18
c10 -9 10 -24 0 -34c-9 -9 -23 -8 -33 0l-18 18c-9 10 -9 24 0 34c9 9 24 9 34 0z" />
    <glyph glyph-name="K" unicode="K" 
d="M489 42v-37c0 -3 2 -5 5 -5c74 3 133 64 133 138c0 76 -62 137 -138 137h-9c-18 74 -84 127 -161 127c-79 0 -146 -55 -163 -130c-61 -14 -106 -69 -106 -134c0 -74 59 -135 133 -138c3 0 5 2 5 5v37c0 3 -2 5 -5 5c-48 3 -86 43 -86 91c0 47 36 85 82 90l15 1
c3 0 5 2 5 5l2 15c6 60 57 106 118 106c60 0 111 -46 118 -106l2 -16c0 -3 2 -5 5 -5h45c50 0 91 -41 91 -90c0 -48 -38 -88 -86 -91c-3 0 -5 -2 -5 -5zM245 118l-55 -202c-3 -12 4 -25 17 -29c2 0 4 -1 6 -1c11 0 20 7 23 18l55 201c3 13 -4 26 -17 29
c-12 4 -25 -4 -29 -16zM340 118l-78 -286c-4 -13 4 -26 16 -29c2 -1 5 -1 7 -1c10 0 20 7 22 17l78 286c4 13 -4 26 -16 29c-13 4 -26 -4 -29 -16zM433 118l-55 -202c-4 -12 4 -25 16 -29l7 -1c10 0 20 7 22 18l55 201c4 13 -4 26 -16 29c-13 4 -26 -4 -29 -16z" />
    <glyph glyph-name="L" unicode="L" horiz-adv-x="849" 
d="M525 558v-56c0 -14 -11 -24 -24 -24s-24 10 -24 24v56c0 14 11 24 24 24s24 -10 24 -24zM309 443l-18 18c-10 9 -10 24 0 34c9 9 24 9 33 0l18 -18c9 -10 9 -24 0 -34c-11 -9 -24 -9 -33 0zM712 461l-40 -40c-11 -9 -23 -9 -34 0c-9 9 -9 24 0 34l40 40c10 9 25 9 34 0
s9 -24 0 -34zM188 42v-37c0 -3 -2 -5 -5 -5c-74 3 -133 64 -133 138c0 65 45 120 107 134c16 75 83 130 162 130c27 0 53 -6 76 -18c27 29 65 46 106 46c81 0 146 -65 146 -146c0 -33 -11 -65 -32 -91c8 -17 12 -36 12 -55c0 -74 -58 -135 -132 -138c-3 0 -5 2 -5 5v37
c0 3 2 5 5 5c47 3 85 43 85 91c0 49 -41 90 -90 90h-46c-3 0 -5 2 -5 5l-2 16c-6 60 -57 106 -118 106s-112 -46 -118 -106l-2 -15c0 -3 -2 -5 -5 -5l-14 -1c-47 -5 -82 -43 -82 -90c0 -48 37 -88 85 -91c3 0 5 -2 5 -5zM481 275h9c37 0 72 -15 97 -40c8 15 13 32 13 49
c0 55 -45 99 -99 99c-25 0 -49 -10 -67 -27c22 -21 39 -49 47 -81zM718 308h57c14 0 24 -11 24 -24s-10 -23 -24 -23h-57c-13 0 -23 10 -23 23s10 24 23 24zM291 106l-7 -29c-4 -14 -18 -20 -29 -16c-13 5 -20 16 -17 29l8 28c3 13 16 20 29 17c12 -4 20 -17 16 -29zM426 88
l8 29c3 12 16 20 29 16c12 -3 20 -16 16 -29l-8 -28c-2 -11 -12 -18 -22 -18l-7 1c-12 4 -20 17 -16 29zM694 125l18 -18c9 -9 10 -24 0 -34c-13 -14 -25 -9 -34 0l-17 18c-10 10 -10 25 0 34c9 9 24 9 33 0zM309 2l8 29c3 13 16 20 29 17c12 -4 20 -17 16 -30l-7 -28
c-5 -18 -19 -20 -29 -17c-12 4 -20 17 -17 29zM201 -43l8 28c3 13 16 20 29 17c12 -4 20 -17 16 -29l-7 -29c-5 -16 -20 -20 -29 -17c-11 4 -20 17 -17 30zM387 -45l8 29c4 12 17 20 29 16c13 -3 20 -16 17 -29l-8 -28c-4 -15 -18 -21 -29 -17c-13 5 -20 16 -17 29z
M272 -131l8 29c3 12 16 20 29 16c12 -3 20 -16 16 -29l-7 -28c-5 -18 -19 -20 -29 -17c-13 4 -20 17 -17 29z" />
    <glyph glyph-name="M" unicode="M" 
d="M490 42v-37c0 -3 2 -5 5 -5c74 3 132 63 132 137c0 76 -61 138 -137 138h-9c-18 74 -84 127 -162 127c-79 0 -146 -55 -162 -131c-62 -14 -107 -69 -107 -134c0 -74 59 -134 133 -137c3 0 5 2 5 5v37c0 3 -2 5 -5 5c-48 3 -85 42 -85 90c0 47 35 86 82 90l15 2
c3 0 4 1 4 4l2 15c6 61 57 106 118 106s112 -45 118 -105l2 -16c1 -3 3 -5 6 -5h45c49 0 90 -41 90 -91c0 -48 -38 -87 -85 -90c-3 0 -5 -2 -5 -5zM246 118l-8 -29c-3 -12 4 -25 17 -29c13 -5 25 2 29 17l7 28c4 13 -4 26 -16 29c-13 4 -26 -4 -29 -16zM434 116l-8 -28
c-4 -13 4 -26 16 -29s25 0 30 16l7 29c4 13 -4 26 -16 29c-13 3 -26 -4 -29 -17zM317 31l-8 -29c-3 -13 4 -26 17 -29c12 -4 24 0 29 17l7 28c4 13 -4 26 -16 29c-13 4 -26 -4 -29 -16zM209 -15l-8 -29c-3 -12 4 -25 17 -29c13 -3 25 2 29 17l7 28c4 13 -4 26 -16 29
c-13 4 -26 -4 -29 -16zM395 -17l-8 -28c-3 -13 4 -26 17 -29c12 -4 25 2 29 16l8 29c3 12 -4 25 -17 29c-12 3 -25 -4 -29 -17zM280 -103l-8 -28c-3 -13 4 -26 17 -29c11 -4 25 2 29 16l7 29c4 13 -4 26 -16 29c-13 4 -26 -4 -29 -17z" />
    <glyph glyph-name="N" unicode="N" horiz-adv-x="850" 
d="M526 559v-57c0 -13 -11 -23 -24 -23s-24 10 -24 23v57c0 13 11 24 24 24s24 -11 24 -24zM713 462l-41 -40c-8 -10 -24 -9 -33 0s-9 24 0 33l40 41c9 9 24 9 34 0c9 -10 9 -25 0 -34zM309 444l-17 18c-10 9 -10 24 0 33c9 9 24 9 33 0l18 -18c9 -9 9 -24 0 -33
c-12 -12 -27 -7 -34 0zM188 46l-32 -39c-2 -2 -4 -3 -7 -2c-57 16 -99 69 -99 132c0 65 45 120 107 134c16 75 83 130 162 130c27 0 53 -6 75 -18c28 30 66 48 108 48c80 0 146 -66 146 -146c0 -34 -12 -66 -33 -92c8 -17 12 -36 12 -56c0 -71 -54 -130 -123 -137l-124 -153
c-9 -11 -24 -13 -33 -4c-10 8 -12 23 -4 33l131 163c6 7 15 7 25 8c45 4 81 43 81 90c0 50 -41 90 -90 90h-45c-3 0 -5 2 -6 5l-2 16c-6 60 -57 106 -118 106s-112 -46 -118 -106l-2 -15c0 -3 -2 -5 -5 -5l-14 -1c-47 -5 -82 -43 -82 -90c0 -50 40 -91 90 -91zM481 274h9
c37 0 72 -15 97 -40c9 15 14 33 14 51c0 54 -45 98 -99 98c-26 0 -50 -10 -69 -27c23 -22 40 -50 48 -82zM719 308h57c13 0 24 -10 24 -23s-11 -24 -24 -24h-57c-13 0 -23 11 -23 24s10 23 23 23zM695 125l18 -17c9 -10 9 -25 0 -34c-12 -12 -27 -7 -34 0l-18 18
c-9 9 -9 24 0 33c10 10 25 10 34 0zM339 84l-131 -163c-8 -10 -23 -11 -33 -3s-12 23 -3 33l130 163c9 10 24 12 34 3c10 -8 11 -23 3 -33zM203 -155l186 231c8 10 23 12 33 4c10 -9 12 -23 4 -34l-186 -230c-9 -11 -24 -13 -33 -4c-10 8 -12 23 -4 33zM160 -140
c-5 -12 -19 -18 -31 -13c-12 6 -17 19 -12 31s19 17 31 12c11 -5 17 -19 12 -30zM329 -179c12 -5 17 -19 12 -31s-19 -17 -31 -12s-17 19 -12 31s19 17 31 12zM185 -213c12 -5 17 -19 12 -31s-19 -17 -31 -12s-17 19 -12 31s19 17 31 12z" />
    <glyph glyph-name="O" unicode="O" horiz-adv-x="676" 
d="M480 275h9c76 0 137 -62 137 -138c0 -71 -54 -130 -123 -137l-124 -153c-9 -14 -26 -10 -33 -4c-10 8 -12 23 -4 33l131 163c6 8 16 7 25 8c45 5 81 43 81 90c0 50 -40 90 -90 90h-45c-3 0 -5 2 -6 5l-2 16c-6 61 -57 106 -118 106s-111 -45 -118 -106l-2 -15
c0 -3 -1 -4 -4 -4l-15 -2c-47 -4 -82 -43 -82 -90c0 -50 40 -90 90 -90l-32 -40c-2 -2 -4 -3 -7 -2c-57 17 -98 69 -98 132c0 65 44 120 106 134c16 76 83 130 162 130c78 0 144 -53 162 -126zM338 84l-130 -162c-10 -12 -22 -11 -34 -4c-10 8 -12 23 -3 33l131 163
c8 10 23 12 33 4c10 -9 12 -23 3 -34zM202 -154l186 230c8 10 23 12 33 4s12 -23 4 -33l-186 -231c-10 -11 -22 -12 -33 -4c-10 8 -12 23 -4 34zM159 -140c-5 -12 -19 -17 -31 -12s-17 19 -12 30c5 12 19 18 31 12c12 -5 17 -18 12 -30zM328 -179c12 -5 17 -19 12 -31
c-5 -11 -19 -17 -31 -12c-12 6 -17 19 -12 31s19 17 31 12zM184 -213c12 -5 17 -19 12 -31c-5 -11 -19 -17 -31 -12c-11 6 -17 19 -12 31s19 17 31 12z" />
    <glyph glyph-name="P" unicode="P" horiz-adv-x="850" 
d="M525 560v-57c0 -13 -10 -24 -23 -24s-24 11 -24 24v57c0 13 11 24 24 24s23 -11 23 -24zM712 463l-40 -40c-9 -9 -25 -10 -33 0c-10 9 -10 24 0 33l40 40c9 10 24 10 33 0c10 -9 10 -24 0 -33zM309 445l-18 18c-9 9 -9 24 0 33s24 9 34 0l18 -18c9 -9 9 -24 -1 -33
c-8 -10 -24 -9 -33 0zM131 -41l18 47c-57 17 -99 69 -99 132c0 65 45 120 106 134c17 75 84 130 163 130c27 0 52 -6 75 -18c27 30 66 48 108 48c80 0 146 -66 146 -146c0 -34 -12 -66 -33 -92c8 -17 12 -36 12 -56c0 -74 -59 -135 -133 -138c-3 0 -5 2 -5 5v38c0 3 2 5 5 5
c48 3 86 42 86 90c0 50 -41 90 -91 90h-45c-3 0 -5 2 -5 5l-2 16c-7 60 -58 106 -118 106c-61 0 -112 -46 -118 -106l-2 -14c0 -4 -1 -5 -5 -5l-15 -2c-46 -5 -82 -43 -82 -90c0 -42 30 -78 69 -88l30 80c2 3 3 4 6 4h82c4 0 6 -2 4 -6l-69 -129h61c4 0 5 -3 3 -6l-148 -219
h-8l67 179h-59c-4 0 -5 2 -4 6zM480 276h9c38 0 72 -16 97 -41c9 15 14 33 14 51c0 54 -44 98 -98 98c-26 0 -51 -10 -69 -27c23 -22 39 -50 47 -81zM719 309h57c13 0 24 -10 24 -23s-11 -24 -24 -24h-57c-13 0 -24 11 -24 24s11 23 24 23zM262 -168l78 286
c3 12 16 20 29 16c12 -3 20 -16 16 -29l-78 -285c-4 -15 -20 -20 -29 -17c-12 4 -20 16 -16 29zM378 -84l55 202c3 12 16 20 29 16c12 -3 20 -16 16 -29l-55 -201c-5 -18 -19 -21 -29 -17c-12 5 -20 17 -16 29zM694 126l18 -17c10 -10 10 -25 0 -34c-9 -12 -27 -7 -33 0
l-18 18c-9 9 -9 24 0 33c9 10 24 10 33 0z" />
    <glyph glyph-name="Q" unicode="Q" 
d="M480 276h9c76 0 138 -62 138 -138c0 -74 -59 -135 -133 -138c-3 0 -5 2 -5 5v38c0 3 2 5 5 5c48 3 86 42 86 90c0 50 -41 90 -91 90h-45c-3 0 -5 2 -5 5l-2 16c-7 60 -58 106 -118 106c-61 0 -112 -46 -118 -106l-2 -14c0 -4 -1 -5 -5 -5l-15 -2c-46 -5 -82 -43 -82 -90
c0 -42 30 -78 69 -88l30 80c2 3 3 4 6 4h82c4 0 6 -2 4 -6l-69 -129h61c4 0 5 -3 3 -6l-148 -219h-8l67 179h-59c-4 0 -5 2 -4 6l18 47c-57 17 -99 69 -99 132c0 65 45 120 106 134c17 75 84 130 163 130c77 0 143 -53 161 -126zM262 -168l78 286c3 12 16 20 29 16
c12 -3 20 -16 16 -29l-78 -285c-4 -15 -18 -20 -29 -17c-13 4 -20 16 -16 29zM378 -84l55 202c3 12 16 20 29 16c12 -3 20 -16 16 -29l-55 -201c-5 -18 -19 -21 -29 -17c-12 5 -20 17 -16 29z" />
    <glyph glyph-name="R" unicode="R" horiz-adv-x="849" 
d="M524 559v-57c0 -13 -10 -24 -23 -24s-24 11 -24 24v57c0 13 11 24 24 24s23 -11 23 -24zM711 462l-40 -40c-9 -12 -27 -7 -33 0c-9 9 -9 24 0 33l40 40c9 10 24 10 33 0c10 -9 10 -24 0 -33zM308 444l-18 18c-9 9 -9 24 0 33c10 9 25 9 34 0l18 -18c9 -9 9 -24 0 -33
c-12 -12 -27 -7 -34 0zM131 -41l18 47c-57 16 -99 69 -99 132c0 65 45 120 106 134c17 75 84 130 163 130c27 0 52 -6 75 -18c27 29 66 47 107 47c80 0 146 -66 146 -146c0 -34 -12 -66 -32 -91c8 -17 12 -36 12 -56c0 -74 -59 -135 -133 -138c-3 0 -5 2 -5 5v37
c0 3 2 5 5 5c48 3 85 43 85 91c0 49 -40 90 -90 90h-45c-3 0 -5 2 -5 5l-2 16c-7 60 -58 106 -118 106c-61 0 -112 -46 -118 -106l-2 -16c-1 -3 -2 -4 -6 -4l-14 -1c-47 -5 -82 -43 -82 -90c0 -43 30 -78 69 -88l30 80c2 3 3 4 6 4h82c4 0 6 -2 4 -6l-69 -129h61
c4 0 5 -3 3 -6l-148 -219h-8l67 179h-59c-4 0 -5 2 -4 6zM480 275h9c38 0 72 -15 97 -40c9 15 13 32 13 50c0 54 -44 98 -98 98c-26 0 -50 -10 -68 -27c23 -21 39 -49 47 -81zM718 308h57c13 0 24 -10 24 -23s-11 -24 -24 -24h-57c-13 0 -24 11 -24 24s11 23 24 23zM431 89
l8 29c4 12 17 20 29 16c13 -3 20 -16 17 -29l-8 -28c-5 -18 -19 -20 -29 -17c-13 4 -20 17 -17 29zM694 125l17 -17c10 -10 10 -25 0 -34c-8 -10 -24 -9 -33 0l-18 18c-9 9 -9 24 0 33c9 10 24 10 34 0zM315 3l7 29c4 13 17 20 29 17c13 -4 20 -17 17 -29l-8 -29
c-5 -17 -19 -20 -29 -17c-13 4 -20 17 -16 29zM393 -44l8 29c3 12 16 20 29 16c12 -3 20 -16 16 -29l-7 -28c-5 -18 -19 -21 -29 -17c-13 5 -21 17 -17 29zM278 -130l7 29c4 12 17 20 29 16c13 -3 20 -16 17 -29l-8 -28c-5 -18 -19 -20 -29 -17c-12 4 -20 17 -16 29z" />
    <glyph glyph-name="S" unicode="S" 
d="M480 276h9c76 0 138 -62 138 -138c0 -74 -59 -135 -133 -138c-3 0 -5 2 -5 5v38c0 3 2 5 5 5c48 3 86 42 86 90c0 50 -41 90 -91 90h-45c-3 0 -5 2 -5 5l-2 16c-7 60 -58 106 -118 106c-61 0 -112 -46 -118 -106l-2 -14c0 -4 -1 -5 -5 -5l-15 -2c-46 -5 -82 -43 -82 -90
c0 -42 30 -78 69 -88l30 80c2 3 3 4 6 4h82c4 0 6 -2 4 -6l-69 -129h61c4 0 5 -3 3 -6l-148 -219h-8l67 179h-59c-4 0 -5 2 -4 6l18 47c-57 17 -99 69 -99 132c0 65 45 120 106 134c17 75 84 130 163 130c77 0 143 -53 161 -126zM431 90l8 28c4 13 17 20 29 17
c13 -4 20 -17 17 -29l-8 -29c-5 -17 -19 -21 -29 -17c-13 5 -20 17 -17 30zM315 4l7 28c4 13 17 20 29 17c13 -4 20 -17 17 -29l-8 -29c-4 -14 -17 -20 -29 -16s-20 16 -16 29zM393 -44l8 29c3 13 16 20 29 17c12 -4 20 -17 16 -30l-7 -28c-5 -18 -19 -20 -29 -17
c-12 4 -20 17 -17 29zM278 -129l7 28c4 13 17 20 29 17c13 -4 20 -17 17 -29l-8 -29c-4 -14 -17 -20 -29 -16s-20 16 -16 29z" />
    <glyph glyph-name="T" unicode="T" horiz-adv-x="850" 
d="M525 560v-57c0 -13 -10 -24 -23 -24s-24 11 -24 24v57c0 13 11 24 24 24s23 -11 23 -24zM712 463l-40 -40c-9 -9 -25 -10 -33 0c-10 9 -10 24 0 33l40 40c9 10 24 10 33 0c10 -9 10 -24 0 -33zM309 445l-18 18c-9 9 -9 24 0 33s24 9 34 0l18 -18c9 -9 9 -24 0 -33
c-12 -12 -27 -7 -34 0zM188 42v-37c0 -3 -2 -5 -5 -5c-74 3 -133 64 -133 138c0 65 45 120 106 134c17 75 84 130 163 130c27 0 52 -6 75 -18c27 30 66 48 108 48c80 0 146 -66 146 -146c0 -34 -12 -66 -33 -92c8 -17 12 -36 12 -56c0 -74 -59 -135 -133 -138
c-3 0 -5 2 -5 5v37c0 3 2 5 5 5c48 3 86 43 86 91c0 49 -41 90 -91 90h-45c-3 0 -5 2 -5 5l-2 16c-7 60 -58 106 -118 106c-61 0 -112 -46 -118 -106l-2 -15c0 -3 -2 -5 -5 -5l-15 -1c-46 -5 -82 -43 -82 -90c0 -48 38 -88 86 -91c3 0 5 -2 5 -5zM480 275h9
c38 0 72 -15 97 -40c9 15 14 33 14 51c0 54 -44 98 -98 98c-26 0 -51 -10 -69 -27c23 -22 39 -50 47 -82zM719 309h57c13 0 24 -10 24 -23s-11 -24 -24 -24h-57c-13 0 -24 11 -24 24s11 23 24 23zM210 -12l35 130c4 12 17 20 29 16c13 -3 20 -16 17 -29l-35 -130
c-5 -18 -18 -20 -30 -16s-20 16 -16 29zM282 -94l58 212c3 12 16 20 29 16c12 -3 20 -16 16 -29l-57 -211c-5 -18 -19 -20 -29 -17c-13 4 -20 17 -17 29zM398 -11l35 129c3 12 16 20 29 16c12 -3 20 -16 16 -29l-35 -129c-4 -14 -18 -20 -29 -16c-12 4 -20 16 -16 29z
M694 126l18 -17c10 -10 10 -25 0 -34c-8 -10 -25 -10 -33 0l-18 18c-9 9 -9 24 0 33c9 10 24 10 33 0zM222 -69c12 -5 17 -18 12 -30s-19 -17 -30 -12c-12 5 -18 19 -12 30c5 12 19 18 30 12zM410 -69c11 -5 17 -18 12 -30s-19 -17 -31 -12s-17 19 -12 30c5 12 19 18 31 12z
M293 -153c12 -5 17 -19 12 -31s-19 -17 -30 -12c-12 5 -18 19 -12 31c5 11 19 17 30 12z" />
    <glyph glyph-name="U" unicode="U" 
d="M480 275h9c76 0 138 -61 138 -137c0 -74 -59 -135 -133 -138c-3 0 -5 2 -5 5v37c0 3 2 5 5 5c48 3 86 43 86 91c0 49 -41 90 -91 90h-45c-3 0 -5 2 -5 5l-2 16c-7 60 -58 106 -118 106c-61 0 -112 -46 -118 -106l-2 -15c0 -3 -2 -5 -5 -5l-15 -1c-46 -5 -82 -43 -82 -90
c0 -48 38 -88 86 -91c3 0 5 -2 5 -5v-37c0 -3 -2 -5 -5 -5c-74 3 -133 64 -133 138c0 65 45 120 106 134c17 75 84 130 163 130c77 0 143 -53 161 -127zM210 -12l35 130c4 12 17 20 29 16c13 -3 20 -16 17 -29l-35 -130c-5 -18 -19 -20 -30 -16c-12 4 -20 16 -16 29z
M282 -94l58 212c3 12 16 20 29 16c12 -3 20 -16 16 -29l-57 -211c-5 -18 -19 -20 -29 -17c-15 4 -20 17 -17 29zM398 -11l35 129c3 12 16 20 29 16c12 -3 20 -16 16 -29l-35 -129c-4 -14 -17 -20 -29 -16c-11 4 -20 16 -16 29zM222 -69c12 -5 17 -18 12 -30s-19 -17 -30 -12
c-12 5 -18 19 -12 30c5 12 19 18 30 12zM410 -69c11 -5 17 -18 12 -30s-19 -17 -31 -12s-17 19 -12 30c5 12 19 18 31 12zM293 -153c12 -5 17 -19 12 -31s-19 -17 -30 -12c-12 5 -18 19 -12 31c5 11 19 17 30 12z" />
    <glyph glyph-name="V" unicode="V" horiz-adv-x="850" 
d="M526 560v-57c0 -13 -11 -23 -24 -23s-23 10 -23 23v57c0 13 10 24 23 24s24 -11 24 -24zM713 463l-40 -40c-12 -12 -27 -7 -34 0c-9 9 -9 24 0 33l40 41c10 9 25 9 34 0c9 -10 9 -25 0 -34zM310 445l-18 18c-9 9 -9 24 0 33c9 10 24 9 33 0l18 -18c9 -9 9 -24 0 -33
c-9 -12 -27 -7 -33 0zM187 42v-37c0 -3 -2 -5 -5 -5c-74 3 -132 63 -132 137c0 65 44 120 106 134c17 76 83 131 162 131c27 0 53 -7 76 -18c27 30 66 48 108 48c81 0 146 -66 146 -146c0 -34 -12 -67 -33 -93c7 -17 11 -36 11 -56c0 -74 -58 -134 -132 -137c-3 0 -5 2 -5 5
v37c0 3 2 5 5 5c48 3 85 42 85 90c0 50 -40 91 -90 91h-45c-3 0 -5 2 -6 5l-2 16c-6 60 -57 105 -118 105s-111 -45 -118 -106l-2 -15c0 -3 -1 -4 -4 -4l-15 -2c-47 -4 -82 -43 -82 -90c0 -48 37 -87 85 -90c3 0 5 -2 5 -5zM480 275h9c38 0 72 -16 97 -41c10 16 15 33 15 52
c0 54 -44 98 -99 98c-26 0 -51 -10 -69 -28c22 -22 39 -49 47 -81zM720 310h57c13 0 23 -11 23 -24s-10 -24 -23 -24h-57c-13 0 -24 11 -24 24s11 24 24 24zM291 105l-13 -47c-4 -14 -19 -19 -29 -16c-13 4 -20 16 -16 29l12 47c4 12 17 20 29 16c13 -3 21 -16 17 -29z
M419 70l13 47c3 12 16 20 29 16c12 -3 20 -16 16 -29l-12 -47c-4 -14 -17 -20 -29 -16c-13 4 -20 16 -17 29zM695 126l18 -17c9 -10 9 -25 0 -34c-11 -9 -23 -9 -34 0l-17 18c-10 9 -10 24 0 33c9 10 24 10 33 0zM304 -16l12 47c4 13 17 20 29 17c13 -4 21 -17 17 -29
l-13 -47c-5 -18 -19 -20 -29 -17c-12 3 -20 17 -16 29zM238 23c13 0 23 -10 23 -23s-10 -23 -23 -23s-23 10 -23 23s10 23 23 23zM424 22c13 0 23 -10 23 -23s-10 -23 -23 -23s-23 10 -23 23s10 23 23 23zM185 -106l13 47c4 13 17 20 29 17c13 -4 20 -17 17 -29l-13 -47
c-5 -18 -19 -20 -29 -17c-12 4 -20 17 -17 29zM372 -107l12 47c4 13 17 20 30 17c12 -4 20 -17 16 -29l-13 -47c-5 -17 -16 -20 -29 -17c-12 3 -20 17 -16 29zM309 -64c13 0 23 -10 23 -23s-10 -23 -23 -23s-23 10 -23 23s10 23 23 23zM256 -192l13 47c4 12 17 20 29 16
c13 -3 20 -16 17 -29l-13 -47c-4 -14 -18 -19 -29 -16c-13 4 -20 16 -17 29z" />
    <glyph glyph-name="W" unicode="W" 
d="M480 275h9c76 0 138 -62 138 -138c0 -73 -59 -134 -133 -137c-3 0 -5 2 -5 5v37c0 3 2 5 5 5c48 3 86 43 86 90c0 50 -41 91 -91 91h-45c-3 0 -5 2 -5 5l-2 16c-7 60 -58 106 -118 106c-61 0 -112 -46 -118 -107l-2 -14c0 -4 -1 -5 -5 -5l-15 -2c-46 -4 -82 -43 -82 -90
s38 -87 86 -90c3 0 5 -2 5 -5v-37c0 -3 -2 -5 -5 -5c-74 3 -133 64 -133 137c0 66 45 120 106 135c17 75 84 130 163 130c77 0 143 -53 161 -127zM291 106l-12 -47c-5 -18 -19 -20 -29 -17c-14 4 -20 17 -17 29l13 47c3 13 16 20 29 17c12 -4 20 -17 16 -29zM419 70l13 47
c4 13 17 20 29 17c13 -4 20 -17 17 -29l-13 -47c-4 -15 -19 -20 -29 -17c-14 4 -20 17 -17 29zM304 -16l13 47c3 13 16 20 29 17c12 -4 20 -17 16 -29l-12 -47c-4 -16 -17 -20 -29 -17s-20 17 -17 29zM238 23c13 0 23 -10 23 -23s-10 -23 -23 -23s-23 10 -23 23s10 23 23 23
zM425 22c12 0 23 -10 23 -23s-11 -23 -23 -23c-13 0 -24 10 -24 23s11 23 24 23zM186 -105l12 47c4 12 17 20 30 16c12 -3 20 -16 16 -29l-13 -47c-4 -14 -18 -19 -29 -16c-12 3 -20 16 -16 29zM372 -106l13 47c3 12 16 20 29 16c13 -3 20 -16 17 -29l-13 -47
c-4 -14 -16 -19 -29 -16s-20 16 -17 29zM309 -63c13 0 23 -11 23 -24c0 -12 -10 -23 -23 -23s-23 11 -23 23c0 13 10 24 23 24zM257 -192l12 47c4 12 17 20 30 16c12 -3 20 -16 16 -29l-13 -47c-3 -12 -14 -20 -29 -16c-12 3 -20 16 -16 29z" />
    <glyph glyph-name="X" unicode="X" horiz-adv-x="849" 
d="M524 562v-57c0 -14 -10 -24 -23 -24s-24 10 -24 24v57c0 13 11 23 24 23s23 -10 23 -23zM308 446l-18 18c-9 9 -9 24 0 34c10 9 24 9 34 0l18 -18c9 -9 9 -24 0 -34c-11 -9 -23 -9 -34 0zM711 464l-40 -40c-11 -9 -24 -9 -33 0c-10 9 -10 24 0 34l40 40c9 9 24 9 33 0
c10 -9 10 -24 0 -34zM188 43v-38c0 -3 -2 -5 -5 -5c-74 3 -133 64 -133 138c0 65 45 120 106 134c17 76 84 130 163 130c26 0 51 -6 74 -17c27 30 66 48 108 48c80 0 146 -65 146 -146c0 -33 -12 -66 -33 -91c8 -18 13 -37 13 -58c0 -74 -59 -135 -133 -138c-3 0 -5 2 -5 5
v38c0 3 2 5 5 5c48 3 86 42 86 90c0 50 -41 90 -91 90h-45c-3 0 -5 2 -5 5l-2 16c-7 61 -58 106 -118 106c-61 0 -112 -46 -118 -106l-2 -14c0 -4 -1 -5 -5 -5l-15 -2c-46 -4 -82 -43 -82 -90c0 -48 38 -87 86 -90c3 0 5 -2 5 -5zM480 276h9c38 0 71 -15 96 -39
c9 15 14 32 14 50c0 55 -44 99 -98 99c-26 0 -51 -10 -69 -28c23 -22 40 -50 48 -82zM718 311h57c13 0 24 -11 24 -24s-11 -23 -24 -23h-57c-13 0 -24 10 -24 23s11 24 24 24zM329 172h82c4 0 6 -2 4 -6l-64 -117h61c4 0 5 -3 3 -6l-148 -219h-8l68 179h-60c-4 0 -5 2 -4 6
l60 159c2 3 3 4 6 4zM694 128l17 -18c10 -9 10 -24 0 -34c-9 -9 -24 -9 -33 0l-18 18c-9 10 -9 25 0 34s24 9 34 0z" />
    <glyph glyph-name="Y" unicode="Y" 
d="M489 43v-38c0 -3 2 -5 5 -5c74 3 133 64 133 138c0 76 -62 138 -138 138h-9c-18 73 -84 126 -161 126c-79 0 -146 -54 -163 -130c-61 -14 -106 -69 -106 -134c0 -74 59 -135 133 -138c3 0 5 2 5 5v38c0 3 -2 5 -5 5c-48 3 -86 42 -86 90c0 47 36 86 82 90l15 2
c4 0 5 1 5 5l2 14c6 60 57 106 118 106c60 0 111 -45 118 -106l2 -16c0 -3 2 -5 5 -5h45c50 0 91 -40 91 -90c0 -48 -38 -87 -86 -90c-3 0 -5 -2 -5 -5zM329 172h82c4 0 6 -2 4 -6l-64 -117h61c4 0 5 -3 3 -6l-148 -219h-8l68 179h-60c-4 0 -5 2 -4 6l60 159c2 3 3 4 6 4z
" />
    <glyph glyph-name="Z" unicode="Z" horiz-adv-x="793" 
d="M265 232l-15 -2c-32 -3 -60 -23 -73 -52c-2 -3 -3 -4 -6 -4h-40c-4 0 -5 2 -4 6v-1c14 48 53 84 100 95c17 76 84 131 163 131c77 0 143 -53 161 -127h9c63 0 116 -42 132 -98c1 -4 0 -6 -4 -6h-40c-3 0 -4 1 -6 4c-14 31 -45 53 -82 53h-45c-3 0 -5 2 -5 5l-2 16
c-7 60 -58 105 -118 105c-61 0 -112 -45 -118 -106l-2 -14c0 -4 -1 -5 -5 -5zM147 87h523c13 0 23 11 23 24s-10 23 -23 23h-523c-13 0 -24 -10 -24 -23s11 -24 24 -24zM74 0h523c13 0 24 10 24 23c0 14 -11 24 -24 24h-523c-13 0 -24 -10 -24 -24c0 -13 11 -23 24 -23z
M196 -87h523c13 0 24 11 24 24s-11 23 -24 23h-523c-13 0 -24 -10 -24 -23s11 -24 24 -24z" />
    <glyph glyph-name="a" unicode="a" horiz-adv-x="697" 
d="M489 0h-302c-76 0 -137 62 -137 138c0 65 44 120 106 134c17 75 83 130 162 130c27 0 53 -6 75 -18c28 30 67 48 108 48c81 0 146 -65 146 -146c0 -34 -11 -66 -32 -92c7 -17 12 -36 12 -56c0 -76 -62 -138 -138 -138zM480 275h9c38 0 72 -15 97 -40c9 15 14 33 14 51
c0 55 -44 99 -99 99c-26 0 -50 -11 -68 -28c22 -22 39 -50 47 -82zM187 47h302c50 0 90 41 90 91c0 49 -40 90 -90 90h-50l-3 21c-6 60 -57 106 -118 106c-60 0 -111 -46 -118 -106l-2 -20l-19 -1c-47 -5 -82 -43 -82 -90c0 -50 41 -91 90 -91z" />
    <glyph glyph-name="b" unicode="b" horiz-adv-x="898" 
d="M256 173l1 5c14 47 53 83 101 94c16 76 83 130 162 130c27 0 52 -6 75 -17c27 29 66 46 107 46c80 0 146 -65 146 -146c0 -33 -12 -65 -32 -91c8 -17 12 -36 12 -56c0 -76 -62 -138 -138 -138h-192c-3 0 -5 2 -5 5v38c0 3 2 5 5 5h192c50 0 91 40 91 90s-41 90 -91 90
h-45c-3 0 -5 2 -5 5l-2 16c-7 61 -57 106 -118 106s-112 -46 -118 -106l-2 -14c0 -4 -1 -5 -5 -5l-15 -2c-33 -3 -61 -24 -73 -54c-2 -3 -3 -4 -6 -4h-40c-4 0 -5 1 -5 3zM681 276h9c38 0 72 -16 97 -40c9 15 14 32 14 49c0 55 -45 99 -99 99c-26 0 -50 -10 -68 -27
c23 -22 40 -50 47 -81zM513 85h-366c-13 0 -24 10 -24 23s11 24 24 24h366c13 0 23 -11 23 -24s-10 -23 -23 -23zM74 48h366c13 0 23 -11 23 -24s-10 -24 -23 -24h-366c-13 0 -24 11 -24 24s11 24 24 24zM196 -38h366c13 0 24 -11 24 -24s-11 -23 -24 -23h-366
c-13 0 -24 10 -24 23s11 24 24 24z" />
    <glyph glyph-name="c" unicode="c" horiz-adv-x="908" 
d="M836 309l17 -6c3 -1 5 -3 4 -6l-5 -19c-8 -28 -21 -53 -42 -72c11 -20 18 -44 18 -69c0 -76 -62 -137 -138 -137h-192c-3 0 -5 2 -5 5v37c0 3 2 5 5 5h192c50 0 91 41 91 90c0 50 -41 91 -91 91h-45c-3 0 -5 2 -5 5l-2 16c-7 60 -57 105 -118 105s-112 -45 -118 -106
l-2 -14c0 -4 -1 -5 -5 -5l-15 -2c-33 -3 -61 -24 -73 -54c-2 -3 -3 -4 -6 -4h-40c-4 0 -5 2 -4 6v1c14 48 53 84 101 95c16 76 83 131 162 131c23 0 45 -5 66 -14c32 54 97 82 159 67l23 -7c3 -1 5 -3 4 -6l-4 -17c-12 -51 18 -102 68 -116zM681 275h9c34 0 65 -12 89 -33
c9 9 16 19 21 30c-52 25 -85 81 -82 139c-37 3 -73 -16 -92 -47c27 -23 47 -54 55 -89zM513 84h-366c-13 0 -24 11 -24 24s11 23 24 23h366c13 0 23 -10 23 -23s-10 -24 -23 -24zM74 47h366c13 0 23 -10 23 -24c0 -13 -10 -23 -23 -23h-366c-13 0 -24 10 -24 23
c0 14 11 24 24 24zM196 -40h366c13 0 24 -10 24 -23s-11 -24 -24 -24h-366c-13 0 -24 11 -24 24s11 23 24 23z" />
    <glyph glyph-name="d" unicode="d" horiz-adv-x="825" 
d="M184 176v1c14 47 53 84 101 95c16 76 83 130 162 130c26 0 52 -6 74 -17c27 30 66 48 108 48c80 0 146 -65 146 -146c0 -34 -12 -66 -32 -92c8 -17 12 -37 12 -57c0 -76 -62 -138 -138 -138h-192c-3 0 -5 2 -5 5v38c0 3 2 5 5 5h192c50 0 91 40 91 90s-41 90 -91 90h-45
c-3 0 -5 2 -5 5l-2 16c-7 61 -57 106 -118 106s-112 -46 -118 -106l-2 -14c0 -4 -1 -5 -5 -5l-15 -2c-33 -3 -61 -24 -73 -54c-2 -3 -3 -4 -6 -4h-40c-4 0 -5 2 -4 6zM608 276h9c38 0 72 -15 97 -40c9 16 14 33 14 51c0 54 -45 99 -99 99c-26 0 -51 -11 -69 -28
c23 -22 41 -50 48 -82zM440 85h-366c-13 0 -24 10 -24 23s11 24 24 24h366c14 0 27 12 27 27s-13 27 -27 27c-8 0 -14 -3 -19 -8c-10 -9 -25 -9 -34 0s-9 24 0 34c14 14 33 21 53 21c41 0 74 -33 74 -74s-33 -74 -74 -74zM74 48h224c41 0 74 -34 74 -75s-33 -74 -74 -74
c-20 0 -39 8 -53 22c-9 9 -9 24 0 33c9 10 24 10 34 0c5 -5 11 -8 19 -8c14 0 27 13 27 27c0 15 -13 27 -27 27h-224c-13 0 -24 11 -24 24s11 24 24 24z" />
    <glyph glyph-name="e" unicode="e" horiz-adv-x="833" 
d="M762 310l17 -6c2 -1 4 -3 3 -6l-4 -19c-7 -27 -21 -52 -42 -72c12 -20 19 -44 19 -69c0 -76 -62 -138 -138 -138h-192c-3 0 -5 2 -5 5v38c0 3 2 5 5 5h192c50 0 91 40 91 90s-41 90 -91 90h-45c-3 0 -5 2 -5 5l-2 16c-7 61 -57 106 -118 106s-112 -46 -118 -106l-2 -14
c0 -4 -1 -5 -5 -5l-15 -2c-33 -3 -61 -24 -73 -54c-2 -3 -3 -4 -6 -4h-40c-4 0 -5 2 -4 6v1c14 47 53 84 101 95c16 75 83 130 162 130c23 0 44 -4 64 -13c33 54 98 82 160 67l22 -7c3 -1 5 -3 4 -6l-4 -17c-11 -51 19 -102 69 -116zM608 276h9c34 0 65 -12 88 -32
c9 8 16 18 21 29c-53 25 -86 81 -82 139c-37 3 -73 -15 -92 -47c27 -22 48 -53 56 -89zM440 85h-366c-13 0 -24 10 -24 23s11 24 24 24h366c14 0 27 12 27 27s-13 27 -27 27c-8 0 -14 -3 -19 -8c-10 -9 -25 -9 -34 0s-9 24 0 34c14 14 33 21 53 21c41 0 74 -33 74 -74
s-33 -74 -74 -74zM74 48h224c41 0 74 -34 74 -75s-33 -74 -74 -74c-20 0 -39 8 -53 22c-9 9 -9 24 0 33s24 9 34 0c5 -5 11 -8 19 -8c14 0 27 12 27 27s-13 27 -27 27h-224c-13 0 -24 11 -24 24s11 24 24 24z" />
    <glyph glyph-name="f" unicode="f" horiz-adv-x="698" 
d="M188 43v-38c0 -3 -2 -5 -5 -5c-74 3 -133 64 -133 138c0 65 45 120 106 134c17 76 84 130 163 130c27 0 52 -6 74 -17c28 30 67 48 109 48c80 0 146 -66 146 -146c0 -34 -12 -67 -33 -93c8 -17 12 -36 12 -56c0 -74 -59 -135 -133 -138c-3 0 -5 2 -5 5v38c0 3 2 5 5 5
c48 3 86 42 86 90c0 50 -41 90 -91 90h-45c-3 0 -5 2 -5 5l-2 16c-7 61 -58 106 -118 106c-61 0 -112 -46 -118 -106l-2 -14c0 -4 -1 -5 -5 -5l-15 -2c-46 -4 -82 -43 -82 -90c0 -48 38 -87 86 -90c3 0 5 -2 5 -5zM480 276h9c38 0 72 -16 97 -40c9 15 14 32 14 51
c0 54 -44 98 -98 98c-27 0 -51 -10 -69 -28c23 -21 39 -49 47 -81zM392 189c0 -15 -12 -26 -26 -26c-15 0 -27 11 -27 26c0 18 27 45 27 45s26 -27 26 -45zM255 182c0 0 39 -41 39 -68c0 -21 -17 -39 -39 -39s-40 18 -40 39c0 27 40 68 40 68zM363 107c0 0 65 -60 65 -104
c0 -35 -29 -65 -65 -65s-65 30 -65 65c0 45 65 104 65 104z" />
    <glyph glyph-name="g" unicode="g" horiz-adv-x="706" 
d="M635 309l16 -5c3 -1 5 -3 4 -6l-4 -20c-7 -27 -22 -52 -43 -72c12 -20 19 -43 19 -68c0 -74 -59 -135 -133 -138c-3 0 -5 2 -5 5v37c0 3 2 5 5 5c48 3 86 43 86 91c0 49 -41 90 -91 90h-45c-3 0 -5 2 -5 5l-2 16c-7 60 -58 106 -118 106c-61 0 -112 -46 -118 -106l-2 -15
c0 -3 -2 -5 -5 -5l-15 -1c-46 -5 -82 -43 -82 -90c0 -48 38 -88 86 -91c3 0 5 -2 5 -5v-37c0 -3 -2 -5 -5 -5c-74 3 -133 64 -133 138c0 65 45 120 106 134c17 75 84 130 163 130c23 0 45 -5 65 -13c32 53 97 81 160 66l22 -7c3 -1 5 -3 4 -6l-4 -17
c-12 -51 19 -102 69 -116zM480 275h9c34 0 65 -12 89 -32c9 8 16 18 21 29c-53 26 -86 81 -83 139c-37 3 -72 -15 -92 -47c28 -22 47 -53 56 -89zM392 188c0 -14 -12 -26 -26 -26c-15 0 -27 12 -27 26c0 18 27 45 27 45s26 -27 26 -45zM255 181c0 0 39 -40 39 -67
c0 -22 -17 -39 -39 -39s-40 17 -40 39c0 27 40 67 40 67zM363 106c0 0 65 -59 65 -103c0 -36 -29 -65 -65 -65s-65 29 -65 65c0 44 65 103 65 103z" />
    <glyph glyph-name="h" unicode="h" horiz-adv-x="698" 
d="M188 42v-37c0 -3 -2 -5 -5 -5c-74 3 -133 64 -133 138c0 65 45 120 106 134c17 75 84 130 163 130c27 0 52 -6 75 -18c27 30 66 48 108 48c80 0 146 -65 146 -146c0 -34 -12 -66 -33 -92c8 -17 12 -36 12 -56c0 -74 -59 -135 -133 -138c-3 0 -5 2 -5 5v37c0 3 2 5 5 5
c48 3 86 43 86 91c0 50 -41 90 -91 90h-45c-3 0 -5 2 -5 5l-2 16c-7 60 -58 106 -118 106c-61 0 -112 -46 -118 -106l-2 -15c0 -3 -2 -5 -5 -5l-15 -1c-46 -5 -82 -43 -82 -90c0 -48 38 -88 86 -91c3 0 5 -2 5 -5zM480 275h9c38 0 72 -15 97 -40c9 16 14 33 14 51
c0 55 -44 99 -98 99c-26 0 -51 -10 -69 -28c23 -22 39 -50 47 -82zM339 94c13 0 24 -10 24 -23s-11 -23 -24 -23c-12 0 -23 10 -23 23s11 23 23 23zM250 47c13 0 23 -10 23 -23s-10 -23 -23 -23s-23 10 -23 23s10 23 23 23zM429 47c13 0 23 -10 23 -23s-10 -23 -23 -23
s-23 10 -23 23s10 23 23 23zM339 -6c13 0 24 -11 24 -23c0 -13 -11 -24 -24 -24c-12 0 -23 11 -23 24c0 12 11 23 23 23zM250 -53c13 0 23 -11 23 -24s-10 -23 -23 -23s-23 10 -23 23s10 24 23 24zM429 -53c13 0 23 -11 23 -24s-10 -23 -23 -23s-23 10 -23 23s10 24 23 24z
M339 -108c13 0 24 -11 24 -23c0 -13 -11 -24 -24 -24c-12 0 -23 11 -23 24c0 12 11 23 23 23z" />
    <glyph glyph-name="i" unicode="i" horiz-adv-x="707" 
d="M635 309l17 -5c3 -1 5 -3 4 -6l-5 -20c-7 -28 -21 -53 -42 -72c11 -20 18 -44 18 -69c0 -73 -59 -134 -133 -137c-3 0 -5 2 -5 5v37c0 3 2 5 5 5c48 3 86 43 86 90c0 50 -41 91 -91 91h-45c-3 0 -5 2 -5 5l-2 16c-7 60 -58 106 -118 106c-61 0 -112 -46 -118 -107l-2 -14
c0 -4 -1 -5 -5 -5l-15 -2c-46 -4 -82 -43 -82 -90s38 -87 86 -90c3 0 5 -2 5 -5v-37c0 -3 -2 -5 -5 -5c-74 3 -133 64 -133 137c0 66 45 120 106 135c17 75 84 130 163 130c23 0 45 -5 66 -14c32 54 97 82 159 67l22 -7c3 -1 5 -3 4 -6l-3 -17c-12 -51 18 -102 68 -116z
M480 275h9c34 0 65 -12 89 -33c9 9 16 19 21 30c-53 26 -85 81 -82 139c-37 3 -73 -15 -92 -47c27 -23 47 -53 55 -89zM339 94c13 0 24 -10 24 -23s-11 -23 -24 -23c-12 0 -23 10 -23 23s11 23 23 23zM250 47c13 0 23 -11 23 -23c0 -13 -10 -24 -23 -24s-23 11 -23 24
c0 12 10 23 23 23zM429 47c13 0 23 -11 23 -23c0 -13 -10 -24 -23 -24s-23 11 -23 24c0 12 10 23 23 23zM339 -6c13 0 24 -11 24 -24s-11 -23 -24 -23c-12 0 -23 10 -23 23s11 24 23 24zM250 -54c13 0 23 -10 23 -23s-10 -23 -23 -23s-23 10 -23 23s10 23 23 23zM429 -54
c13 0 23 -10 23 -23s-10 -23 -23 -23s-23 10 -23 23s10 23 23 23zM339 -108c13 0 24 -11 24 -24s-11 -23 -24 -23c-12 0 -23 10 -23 23s11 24 23 24z" />
    <glyph glyph-name="j" unicode="j" horiz-adv-x="698" 
d="M188 42v-37c0 -3 -2 -5 -5 -5c-74 3 -133 63 -133 137c0 65 45 120 106 134c17 76 84 131 163 131c27 0 52 -7 75 -18c27 30 66 48 108 48c80 0 146 -66 146 -146c0 -34 -12 -67 -33 -93c8 -17 12 -36 12 -56c0 -74 -59 -134 -133 -137c-3 0 -5 2 -5 5v37c0 3 2 5 5 5
c48 3 86 42 86 90c0 50 -41 91 -91 91h-45c-3 0 -5 2 -5 5l-2 16c-7 60 -58 105 -118 105c-61 0 -112 -45 -118 -106l-2 -14c0 -4 -1 -5 -5 -5l-15 -2c-46 -4 -82 -43 -82 -90c0 -48 38 -87 86 -90c3 0 5 -2 5 -5zM480 275h9c38 0 72 -15 97 -40c9 15 14 33 14 51
c0 54 -44 98 -98 98c-26 0 -51 -10 -69 -28c23 -21 39 -49 47 -81zM190 -84l55 201c4 13 17 20 29 17c13 -4 20 -17 17 -29l-55 -202c-4 -14 -19 -19 -29 -16c-15 5 -20 16 -17 29zM262 -169l78 286c3 13 16 20 29 17c12 -4 20 -17 16 -29l-78 -286c-3 -15 -15 -21 -29 -17
c-13 4 -20 17 -16 29zM378 -84l55 201c3 13 16 20 29 17c12 -4 20 -17 16 -29l-55 -202c-4 -14 -19 -19 -29 -16c-11 3 -20 16 -16 29z" />
    <glyph glyph-name="k" unicode="k" horiz-adv-x="707" 
d="M636 310l16 -5c3 -1 5 -3 4 -6l-4 -20c-7 -28 -22 -53 -44 -73c12 -20 19 -43 19 -68c0 -74 -59 -135 -133 -138c-3 0 -5 2 -5 5v37c0 3 2 5 5 5c48 3 86 43 86 91c0 49 -41 90 -91 90h-45c-3 0 -5 2 -5 5l-2 16c-7 60 -58 106 -118 106c-61 0 -112 -46 -118 -106l-2 -15
c0 -3 -2 -5 -5 -5l-15 -1c-46 -5 -82 -43 -82 -90c0 -48 38 -88 86 -91c3 0 5 -2 5 -5v-37c0 -3 -2 -5 -5 -5c-74 3 -133 64 -133 138c0 65 45 120 106 134c17 75 84 130 163 130c23 0 45 -5 65 -13c33 54 98 82 161 67l22 -7c3 -1 5 -3 4 -6l-4 -17
c-12 -51 19 -102 69 -116zM480 275h9c34 0 65 -12 89 -32c9 8 16 19 22 30c-53 26 -86 81 -83 139c-37 3 -73 -16 -92 -48c27 -22 47 -53 55 -89zM190 -84l55 202c4 12 17 20 29 16c13 -3 20 -16 17 -29l-55 -201c-5 -18 -19 -20 -29 -17c-13 4 -20 17 -17 29zM262 -168
l78 286c3 12 16 20 29 16c12 -3 20 -16 16 -29l-78 -286c-3 -14 -18 -19 -29 -16s-20 16 -16 29zM378 -84l55 202c3 12 16 20 29 16c12 -3 20 -16 16 -29l-55 -201c-3 -18 -19 -20 -29 -17c-12 4 -20 13 -16 29z" />
    <glyph glyph-name="l" unicode="l" horiz-adv-x="697" 
d="M188 42v-37c0 -3 -2 -5 -5 -5c-74 3 -133 63 -133 137c0 66 44 120 106 134c17 76 84 131 163 131c27 0 52 -7 75 -18c27 29 66 46 107 46c80 0 146 -66 146 -146c0 -33 -12 -65 -32 -91c7 -17 12 -36 12 -56c0 -74 -59 -134 -133 -137c-3 0 -5 2 -5 5v37c0 3 2 5 5 5
c48 3 85 43 85 90c0 50 -40 91 -90 91h-45c-3 0 -5 2 -5 5l-2 16c-7 60 -58 105 -118 105c-61 0 -112 -45 -119 -106l-2 -15c0 -3 -1 -4 -4 -4l-15 -2c-47 -4 -82 -43 -82 -90s38 -87 86 -90c3 0 5 -2 5 -5zM480 275h9c38 0 72 -15 97 -40c9 15 13 31 13 49
c0 54 -44 99 -98 99c-26 0 -50 -10 -68 -27c23 -22 39 -49 47 -81zM291 105l-8 -28c-5 -18 -16 -20 -29 -17c-14 3 -20 17 -17 29l8 29c4 13 17 20 29 17c13 -4 20 -17 17 -30zM425 88l8 28c3 13 16 21 29 17c13 -3 20 -16 17 -29l-8 -29c-4 -14 -18 -19 -29 -16
c-13 3 -20 16 -17 29zM308 2l8 29c4 12 17 20 29 16c13 -3 20 -16 17 -29l-8 -28c-5 -18 -19 -20 -29 -17c-13 4 -20 17 -17 29zM200 -44l8 29c4 12 17 20 29 16c13 -3 20 -16 17 -29l-8 -28c-5 -20 -20 -20 -29 -17c-14 5 -20 17 -17 29zM387 -45l8 28c3 13 16 20 29 17
c12 -3 20 -16 16 -29l-8 -29c-4 -15 -18 -20 -29 -16c-12 4 -20 16 -16 29zM271 -131l8 29c4 12 17 20 29 16c13 -3 20 -16 17 -29l-8 -28c-4 -15 -16 -21 -29 -17s-20 16 -17 29z" />
    <glyph glyph-name="m" unicode="m" horiz-adv-x="708" 
d="M658 304l-5 -22v-3c-7 -28 -23 -54 -44 -73c11 -20 18 -43 18 -68c0 -74 -59 -135 -133 -138c-3 0 -5 2 -5 5v38c0 3 2 5 5 5c48 3 86 42 86 90c0 50 -41 90 -91 90h-45c-3 0 -5 2 -5 5l-2 16c-7 61 -58 106 -118 106c-61 0 -112 -46 -118 -106l-2 -14c0 -4 -1 -5 -5 -5
l-15 -2c-46 -5 -82 -43 -82 -90c0 -48 38 -87 86 -90c3 0 5 -2 5 -5v-38c0 -3 -2 -5 -5 -5c-74 3 -133 64 -133 138c0 65 45 120 107 134c16 75 83 130 162 130c23 0 46 -5 66 -14c33 55 98 83 161 68l4 -1l23 -7l-5 -22c-11 -50 19 -102 69 -116zM480 276h9
c34 0 66 -13 90 -34c9 9 16 20 22 31c-53 26 -86 81 -82 140c-38 2 -75 -17 -93 -49c26 -23 46 -53 54 -88zM291 106l-8 -29c-4 -14 -17 -19 -29 -16c-15 4 -20 16 -16 29l7 28c4 13 17 20 30 17c12 -3 20 -16 16 -29zM426 88l7 29c4 13 17 20 29 17c13 -4 20 -17 17 -29
l-8 -29c-5 -17 -19 -20 -29 -17c-13 4 -20 17 -16 29zM309 3l7 28c4 13 17 20 30 17c12 -4 20 -17 16 -29l-8 -29c-4 -14 -17 -20 -29 -16s-20 16 -16 29zM201 -43l7 28c4 13 17 20 30 17c12 -4 20 -17 16 -29l-8 -29c-4 -14 -18 -20 -29 -16c-12 4 -20 16 -16 29zM387 -45
l8 29c3 12 16 20 29 16c13 -3 20 -16 17 -29l-8 -28c-5 -18 -19 -20 -29 -17c-17 5 -20 17 -17 29zM272 -130l7 28c4 13 17 20 30 17c12 -4 20 -17 16 -29l-8 -29c-5 -17 -19 -20 -29 -17c-12 4 -20 17 -16 30z" />
    <glyph glyph-name="n" unicode="n" horiz-adv-x="697" 
d="M187 43l-31 -40c-2 -2 -4 -3 -7 -2c-58 17 -99 69 -99 132c0 66 44 120 106 134c17 76 83 131 162 131c27 0 53 -7 76 -18c27 30 66 47 107 47c81 0 146 -65 146 -146c0 -33 -12 -66 -32 -91c7 -18 12 -37 12 -57c0 -71 -55 -130 -124 -137l-124 -153
c-9 -14 -25 -12 -33 -4c-10 10 -12 24 -3 34l130 162c6 8 16 8 25 8c46 5 81 44 81 90c0 50 -40 91 -90 91h-45c-3 0 -5 2 -6 5l-2 16c-6 60 -57 105 -118 105c-60 0 -111 -45 -118 -106l-2 -15c0 -3 -1 -4 -4 -4l-15 -2c-47 -4 -82 -43 -82 -90c0 -50 41 -90 90 -90z
M480 271h9c38 0 72 -15 97 -40c9 15 14 32 14 50c0 55 -44 99 -99 99c-26 0 -50 -10 -68 -28c22 -21 39 -49 47 -81zM339 81l-131 -163c-10 -12 -23 -14 -34 -4c-10 10 -11 23 -3 34l131 162c8 10 23 12 33 4s12 -23 4 -33zM202 -158l186 231c8 10 23 11 33 3
c11 -8 12 -23 4 -33l-186 -231c-9 -14 -24 -12 -33 -4c-10 9 -12 24 -4 34zM159 -144c-5 -12 -19 -17 -31 -12s-17 19 -12 31c5 11 19 17 31 12s17 -19 12 -31zM328 -183c12 -5 17 -18 12 -30s-19 -17 -31 -12c-11 5 -17 19 -12 30c6 12 19 18 31 12zM184 -217
c12 -5 17 -19 12 -30c-5 -12 -19 -17 -31 -12c-11 5 -17 19 -12 30c6 12 19 18 31 12z" />
    <glyph glyph-name="o" unicode="o" horiz-adv-x="707" 
d="M657 302l-5 -21v-3c-7 -28 -22 -53 -44 -73c12 -20 19 -44 19 -68c0 -72 -55 -130 -124 -137l-123 -154c-10 -12 -23 -12 -34 -3c-10 8 -12 23 -3 33l131 163c6 7 15 7 24 8c46 4 81 43 81 90c0 49 -40 90 -90 90h-45c-3 0 -5 2 -5 5l-2 16c-7 60 -58 106 -118 106
c-61 0 -112 -46 -119 -106l-2 -15c0 -4 -1 -5 -5 -5l-14 -2c-47 -4 -82 -43 -82 -89c0 -50 41 -91 90 -91l-31 -39c-2 -2 -4 -3 -7 -2c-57 16 -99 69 -99 132c0 65 44 119 106 134c17 75 84 130 163 130c23 0 45 -5 65 -14c33 55 98 83 161 68c1 -1 3 -1 4 -2l23 -6l-5 -22
c-11 -51 19 -102 69 -116zM480 274h9c34 0 65 -12 89 -33c9 9 16 20 22 31c-53 25 -86 81 -83 139c-37 3 -73 -16 -92 -48c27 -23 46 -53 55 -89zM339 84l-131 -163c-11 -13 -26 -10 -33 -3c-11 8 -12 23 -4 33l131 162c8 11 23 12 33 4s12 -23 4 -33zM203 -155l185 231
c8 10 23 12 34 3c10 -8 11 -23 3 -33l-186 -231c-9 -11 -22 -11 -33 -3c-10 8 -12 23 -3 33zM159 -141c-5 -12 -19 -17 -31 -12c-11 5 -17 19 -12 31s19 17 31 12s17 -19 12 -31zM328 -179c12 -6 17 -19 12 -31s-19 -17 -30 -12c-12 5 -18 19 -13 31c6 11 19 17 31 12z
M184 -213c12 -6 17 -19 12 -31s-19 -17 -30 -12c-12 5 -18 19 -12 31c5 11 18 17 30 12z" />
    <glyph glyph-name="p" unicode="p" horiz-adv-x="698" 
d="M131 -41l18 47c-57 16 -99 69 -99 132c0 65 45 120 106 134c17 75 84 130 163 130c27 0 52 -6 75 -18c27 30 66 48 108 48c80 0 146 -66 146 -146c0 -34 -12 -67 -33 -92c8 -17 12 -36 12 -56c0 -74 -59 -135 -133 -138c-3 0 -5 2 -5 5v37c0 3 2 5 5 5c48 3 86 43 86 91
c0 49 -41 90 -91 90h-45c-3 0 -5 2 -5 5l-2 16c-7 60 -58 106 -118 106c-61 0 -112 -46 -118 -106l-2 -15c0 -3 -2 -5 -5 -5l-15 -1c-46 -5 -82 -43 -82 -90c0 -43 30 -78 69 -88l30 80c2 3 3 4 6 4h82c4 0 6 -2 4 -6l-69 -129h61c4 0 5 -3 3 -6l-148 -219h-8l67 179h-59
c-4 0 -5 2 -4 6zM480 275h9c38 0 72 -15 97 -40c9 15 14 33 14 51c0 54 -44 98 -98 98c-26 0 -51 -10 -69 -27c23 -22 39 -50 47 -82zM262 -168l78 286c3 12 16 20 29 16c12 -3 20 -16 16 -29l-78 -286c-4 -14 -17 -19 -29 -16s-20 16 -16 29zM378 -84l55 202
c3 12 16 20 29 16c12 -3 20 -16 16 -29l-55 -201c-5 -18 -19 -20 -29 -17c-13 4 -20 17 -16 29z" />
    <glyph glyph-name="q" unicode="q" horiz-adv-x="707" 
d="M636 310l16 -5c3 -1 5 -3 4 -6l-4 -20c-7 -28 -22 -53 -43 -73c11 -20 18 -43 18 -68c0 -74 -59 -135 -133 -138c-3 0 -5 2 -5 5v38c0 3 2 5 5 5c48 3 86 42 86 90c0 50 -41 90 -91 90h-45c-3 0 -5 2 -5 5l-2 16c-7 60 -58 106 -118 106c-61 0 -112 -46 -118 -106l-2 -14
c0 -4 -1 -5 -5 -5l-15 -2c-46 -5 -82 -43 -82 -90c0 -42 30 -78 69 -88l30 80c2 3 3 4 6 4h82c4 0 6 -2 4 -6l-69 -129h61c4 0 5 -3 3 -6l-148 -219h-8l67 179h-59c-4 0 -5 2 -4 6l18 47c-57 17 -99 69 -99 132c0 65 45 120 106 134c17 75 84 130 163 130c23 0 45 -5 66 -13
c32 54 97 82 160 67c0 0 15 -4 22 -7c3 -1 5 -3 4 -6l-4 -17c-11 -51 19 -102 69 -116zM480 276h9c34 0 65 -13 89 -33c9 8 17 19 22 30c-53 26 -85 81 -82 139c-38 3 -74 -16 -93 -48c27 -22 47 -53 55 -88zM262 -168l78 286c3 12 16 20 29 16c12 -3 20 -16 16 -29
l-78 -285c-4 -15 -15 -20 -29 -17c-12 3 -20 16 -16 29zM378 -84l55 202c3 12 16 20 29 16c12 -3 20 -16 16 -29l-55 -201c-5 -18 -18 -20 -29 -17c-12 3 -20 14 -16 29z" />
    <glyph glyph-name="r" unicode="r" horiz-adv-x="697" 
d="M131 -40l18 46c-57 17 -99 70 -99 132c0 65 45 120 106 134c17 76 84 130 163 130c27 0 52 -6 75 -18c27 30 66 47 107 47c80 0 146 -65 146 -146c0 -33 -12 -65 -32 -91c8 -17 12 -36 12 -56c0 -74 -59 -135 -133 -138c-3 0 -5 2 -5 5v38c0 3 2 5 5 5c48 3 86 42 86 90
c0 50 -41 90 -91 90h-45c-3 0 -5 2 -5 5l-2 16c-7 61 -58 106 -118 106c-61 0 -112 -46 -118 -106l-2 -14c0 -4 -1 -5 -5 -5l-15 -2c-46 -4 -82 -43 -82 -90c0 -42 30 -78 69 -88l31 81c1 3 2 4 5 4h82c4 0 6 -2 4 -6l-69 -130h61c4 0 5 -3 3 -6l-148 -219h-8l67 180h-59
c-4 0 -5 2 -4 6zM480 276h9c38 0 72 -16 97 -40c9 15 13 32 13 49c0 55 -44 99 -98 99c-26 0 -50 -10 -68 -27c23 -22 39 -50 47 -81zM431 90l8 28c4 13 17 20 29 17c13 -4 20 -17 17 -29l-8 -29c-4 -14 -17 -20 -29 -16c-13 4 -20 16 -17 29zM315 4l7 28c4 13 17 20 29 17
c13 -3 20 -16 17 -29l-8 -29c-4 -14 -18 -20 -29 -16c-12 4 -20 16 -16 29zM393 -43l8 28c3 13 16 20 29 17c12 -4 20 -17 16 -29l-7 -29c-4 -14 -17 -19 -29 -16s-20 16 -17 29zM278 -129l7 28c4 13 17 20 29 17c13 -4 20 -17 17 -29l-8 -29c-4 -14 -17 -19 -29 -16
c-11 3 -20 16 -16 29z" />
    <glyph glyph-name="s" unicode="s" horiz-adv-x="707" 
d="M635 309l17 -5c3 -1 5 -3 4 -6l-5 -19c-7 -28 -21 -53 -42 -73c11 -20 18 -43 18 -68c0 -74 -59 -135 -133 -138c-3 0 -5 2 -5 5v38c0 3 2 5 5 5c48 3 86 42 86 90c0 50 -41 90 -91 90h-45c-3 0 -5 2 -5 5l-2 16c-7 60 -58 106 -118 106c-61 0 -112 -46 -118 -106l-2 -14
c0 -4 -1 -5 -5 -5l-15 -2c-46 -5 -82 -43 -82 -90c0 -42 30 -78 69 -88l30 80c2 3 3 4 6 4h82c4 0 6 -2 4 -6l-69 -129h61c4 0 5 -3 3 -6l-148 -219h-8l67 179h-59c-4 0 -5 2 -4 6l18 47c-57 17 -99 69 -99 132c0 65 45 120 106 134c17 75 84 130 163 130c23 0 45 -5 66 -13
c32 53 97 81 159 66l22 -7c3 -1 5 -3 4 -6l-3 -17c-12 -50 18 -101 68 -116zM480 276h9c34 0 65 -13 89 -33c9 8 16 18 21 29c-53 26 -85 81 -82 140c-37 2 -73 -16 -92 -48c27 -22 47 -53 55 -88zM431 90l8 28c4 13 17 20 29 17c13 -4 20 -17 17 -29l-8 -29
c-5 -17 -18 -20 -29 -17c-15 4 -20 17 -17 30zM315 4l7 28c4 13 17 20 29 17c13 -4 20 -17 17 -29l-8 -29c-4 -14 -14 -19 -29 -16c-14 3 -20 16 -16 29zM393 -44l8 29c3 13 16 20 29 17c12 -4 20 -17 16 -30l-7 -28c-5 -18 -17 -21 -29 -17c-14 5 -20 17 -17 29zM278 -129
l7 28c4 13 17 20 29 17c13 -4 20 -17 17 -29l-8 -29c-4 -14 -17 -20 -29 -16s-20 16 -16 29z" />
    <glyph glyph-name="t" unicode="t" horiz-adv-x="698" 
d="M188 42v-37c0 -3 -2 -5 -5 -5c-74 3 -133 64 -133 138c0 65 45 120 106 134c17 75 84 130 163 130c27 0 52 -6 75 -18c27 30 66 48 108 48c80 0 146 -66 146 -146c0 -34 -12 -66 -33 -92c8 -17 12 -36 12 -56c0 -74 -59 -135 -133 -138c-3 0 -5 2 -5 5v37c0 3 2 5 5 5
c48 3 86 43 86 91c0 50 -41 90 -91 90h-45c-3 0 -5 2 -5 5l-2 16c-7 60 -58 106 -118 106c-61 0 -112 -46 -118 -106l-2 -14c0 -4 -1 -5 -5 -5l-15 -2c-46 -5 -82 -43 -82 -90c0 -48 38 -88 86 -91c3 0 5 -2 5 -5zM480 276h9c38 0 72 -16 97 -41c9 15 14 33 14 51
c0 54 -44 99 -98 99c-26 0 -51 -11 -69 -28c23 -22 39 -50 47 -81zM210 -12l35 130c4 12 17 20 29 16c13 -3 20 -16 17 -29l-35 -129c-5 -17 -20 -20 -30 -17c-12 3 -20 16 -16 29zM282 -93l58 211c3 12 16 20 29 16c12 -3 20 -16 16 -29l-57 -211c-4 -14 -17 -19 -29 -16
s-21 13 -17 29zM398 -11l35 129c3 12 16 20 29 16c12 -3 20 -16 16 -29l-35 -129c-4 -14 -16 -21 -29 -16c-11 4 -20 13 -16 29zM222 -68c12 -6 17 -19 12 -31s-19 -17 -30 -12c-12 5 -18 19 -12 31c5 11 19 17 30 12zM410 -68c11 -6 17 -19 12 -31s-19 -17 -31 -12
s-17 19 -12 31c5 11 19 17 31 12zM293 -153c12 -5 17 -19 12 -31s-19 -17 -30 -12c-12 5 -18 19 -12 31c5 12 19 17 30 12z" />
    <glyph glyph-name="u" unicode="u" horiz-adv-x="707" 
d="M636 308l16 -5c3 -1 5 -3 4 -6l-4 -19c-7 -28 -22 -53 -43 -73c11 -20 18 -43 18 -67c0 -74 -59 -135 -133 -138c-3 0 -5 2 -5 5v37c0 3 2 5 5 5c48 3 86 43 86 91c0 49 -41 90 -91 90h-45c-3 0 -5 2 -5 5l-2 16c-7 60 -58 106 -118 106c-61 0 -112 -46 -118 -106l-2 -15
c0 -3 -2 -5 -5 -5l-15 -1c-46 -5 -82 -43 -82 -90c0 -48 38 -88 86 -91c3 0 5 -2 5 -5v-37c0 -3 -2 -5 -5 -5c-74 3 -133 64 -133 138c0 65 45 120 106 134c17 75 84 130 163 130c23 0 46 -5 66 -14c33 54 98 82 160 66l22 -7c3 -1 5 -3 4 -6l-4 -16
c-11 -51 19 -102 69 -117zM480 275h9c34 0 66 -12 90 -33c9 8 16 19 21 30c-53 25 -85 80 -82 139c-37 3 -73 -16 -92 -48c26 -22 46 -53 54 -88zM210 -12l35 130c4 12 17 20 29 16c13 -3 20 -16 17 -29l-35 -130c-4 -15 -16 -21 -30 -16c-12 3 -20 16 -16 29zM282 -94
l58 212c3 12 16 20 29 16c12 -3 20 -16 16 -29l-57 -211c-5 -18 -21 -20 -29 -17c-14 5 -20 17 -17 29zM398 -11l35 129c3 12 16 20 29 16c12 -3 20 -16 16 -29l-35 -129c-4 -14 -16 -19 -29 -16c-11 3 -20 14 -16 29zM222 -69c12 -5 17 -18 12 -30s-19 -17 -30 -12
c-12 5 -18 19 -12 30c5 12 19 18 30 12zM410 -69c11 -5 17 -18 12 -30s-19 -17 -31 -12s-17 19 -12 30c5 12 19 18 31 12zM293 -153c12 -5 17 -19 12 -31s-19 -17 -30 -12c-12 5 -18 19 -12 31c5 11 19 17 30 12z" />
    <glyph glyph-name="v" unicode="v" horiz-adv-x="699" 
d="M188 42v-37c0 -3 -2 -5 -5 -5c-74 3 -133 64 -133 137c0 66 45 120 106 135c17 75 84 130 163 130c27 0 52 -7 75 -18c27 30 67 48 109 48c80 0 146 -65 146 -146c0 -34 -13 -67 -34 -93c8 -17 12 -36 12 -56c0 -73 -59 -134 -133 -137c-3 0 -5 2 -5 5v37c0 3 2 5 5 5
c48 3 86 43 86 90c0 50 -41 91 -91 91h-45c-3 0 -5 2 -5 5l-2 16c-7 60 -58 106 -118 106c-61 0 -112 -46 -118 -107l-2 -14c0 -4 -1 -5 -5 -5l-15 -2c-46 -4 -82 -43 -82 -90s38 -87 86 -90c3 0 5 -2 5 -5zM480 275h9c38 0 73 -15 98 -40c9 15 14 33 14 51
c0 54 -44 99 -98 99c-27 0 -52 -11 -70 -29c23 -21 39 -49 47 -81zM291 106l-12 -47c-6 -17 -17 -21 -29 -17c-13 4 -20 17 -17 29l13 47c3 13 16 20 29 17c12 -4 20 -17 16 -29zM419 70l13 47c4 13 17 20 29 17c13 -4 20 -17 17 -29l-13 -47c-5 -18 -17 -21 -29 -17
c-13 4 -20 15 -17 29zM304 -16l13 47c3 13 16 20 29 17c12 -4 20 -17 16 -29l-12 -47c-5 -18 -18 -21 -29 -17c-13 4 -20 17 -17 29zM238 23c13 0 23 -10 23 -23s-10 -23 -23 -23s-23 10 -23 23s10 23 23 23zM425 22c12 0 23 -10 23 -23s-11 -23 -23 -23
c-13 0 -24 10 -24 23s11 23 24 23zM186 -105l12 47c4 12 17 20 30 16c12 -3 20 -16 16 -29l-13 -47c-4 -14 -18 -19 -29 -16c-12 3 -20 16 -16 29zM372 -106l13 47c3 12 16 20 29 16c13 -3 20 -16 17 -29l-13 -47c-4 -14 -15 -20 -29 -16c-13 3 -20 16 -17 29zM309 -63
c13 0 23 -11 23 -24s-10 -23 -23 -23s-23 10 -23 23s10 24 23 24zM257 -192l12 47c4 12 17 20 30 16c12 -3 20 -16 16 -29l-13 -47c-4 -14 -17 -19 -29 -16s-20 16 -16 29z" />
    <glyph glyph-name="w" unicode="w" horiz-adv-x="707" 
d="M636 310l16 -5c3 -1 5 -3 4 -6l-4 -19c-7 -29 -23 -54 -44 -73c12 -21 19 -44 19 -70c0 -73 -59 -134 -133 -137c-3 0 -5 2 -5 5v37c0 3 2 5 5 5c48 3 86 43 86 90c0 50 -41 91 -91 91h-45c-3 0 -5 2 -5 5l-2 16c-7 60 -58 106 -118 106c-61 0 -112 -46 -118 -107l-2 -14
c0 -4 -1 -5 -5 -5l-15 -2c-46 -4 -82 -43 -82 -90s38 -87 86 -90c3 0 5 -2 5 -5v-37c0 -3 -2 -5 -5 -5c-74 3 -133 64 -133 137c0 66 45 120 106 135c17 75 84 130 163 130c23 0 45 -5 65 -13c32 54 98 83 161 67l22 -7c3 -1 5 -3 4 -6l-4 -16c-12 -51 19 -102 69 -117z
M480 275h9c34 0 65 -12 89 -32c9 9 16 19 22 31c-53 25 -86 80 -83 139c-37 3 -74 -16 -92 -49c27 -22 46 -53 55 -89zM291 106l-12 -47c-5 -18 -19 -20 -29 -17c-16 5 -20 17 -17 29l13 47c3 13 16 20 29 17c12 -4 20 -17 16 -29zM419 70l13 47c4 13 17 20 29 17
c13 -4 20 -17 17 -29l-13 -47c-5 -18 -18 -20 -29 -17c-14 4 -20 17 -17 29zM304 -16l13 47c3 13 16 20 29 17c12 -4 20 -17 16 -29l-12 -47c-4 -16 -18 -21 -29 -17c-14 5 -20 17 -17 29zM238 23c13 0 23 -10 23 -23s-10 -23 -23 -23s-23 10 -23 23s10 23 23 23zM425 22
c12 0 23 -10 23 -23s-11 -23 -23 -23c-13 0 -24 10 -24 23s11 23 24 23zM186 -105l12 47c4 12 17 20 30 16c12 -3 20 -16 16 -29l-13 -47c-4 -14 -19 -20 -29 -16c-11 4 -20 16 -16 29zM372 -106l13 47c3 12 16 20 29 16c13 -3 20 -16 17 -29l-13 -47
c-4 -14 -19 -19 -29 -16c-12 4 -20 16 -17 29zM309 -63c13 0 23 -11 23 -24c0 -12 -10 -23 -23 -23s-23 11 -23 23c0 13 10 24 23 24zM257 -192l12 47c4 12 17 20 30 16c12 -3 20 -16 16 -29l-13 -47c-4 -14 -19 -19 -29 -16c-11 3 -20 16 -16 29z" />
    <glyph glyph-name="x" unicode="x" horiz-adv-x="697" 
d="M188 42v-37c0 -3 -2 -5 -5 -5c-74 3 -133 63 -133 137c0 66 45 120 106 134c17 76 84 131 163 131c26 0 51 -6 74 -18c27 31 66 48 108 48c80 0 146 -65 146 -146c0 -33 -12 -65 -33 -91c8 -18 13 -37 13 -58c0 -74 -59 -134 -133 -137c-3 0 -5 2 -5 5v37c0 3 2 5 5 5
c48 3 86 42 86 90c0 50 -41 91 -91 91h-45c-3 0 -5 2 -5 5l-2 16c-7 60 -58 105 -118 105c-61 0 -112 -45 -118 -106l-2 -14c0 -4 -1 -5 -5 -5l-15 -2c-46 -4 -82 -43 -82 -90c0 -48 38 -87 86 -90c3 0 5 -2 5 -5zM480 275h9c38 0 71 -15 96 -39c9 15 14 32 14 50
c0 55 -44 99 -98 99c-26 0 -51 -10 -69 -28c23 -21 40 -50 48 -82zM329 172h82c4 0 6 -2 4 -6l-64 -118h61c4 0 5 -3 3 -6l-148 -219h-8l68 180h-60c-4 0 -5 2 -4 6l60 159c2 3 3 4 6 4z" />
    <glyph glyph-name="y" unicode="y" horiz-adv-x="706" 
d="M635 310l16 -5c3 -1 5 -3 4 -6l-4 -20c-7 -28 -22 -53 -43 -72c12 -20 19 -44 19 -69c0 -74 -59 -135 -133 -138c-3 0 -5 2 -5 5v38c0 3 2 5 5 5c48 3 86 42 86 90c0 50 -41 90 -91 90h-45c-3 0 -5 2 -5 5l-2 16c-7 61 -58 106 -118 106c-61 0 -112 -46 -118 -106l-2 -14
c0 -4 -1 -5 -5 -5l-15 -2c-46 -4 -82 -43 -82 -90c0 -48 38 -87 86 -90c3 0 5 -2 5 -5v-38c0 -3 -2 -5 -5 -5c-74 3 -133 64 -133 138c0 65 45 120 106 134c17 76 84 130 163 130c23 0 45 -4 65 -13c33 54 98 82 160 67l22 -7c3 -1 5 -3 4 -6l-4 -17
c-11 -51 19 -102 69 -116zM480 276h9c34 0 65 -13 89 -33c9 9 16 19 21 30c-53 26 -85 81 -82 139c-37 3 -73 -16 -92 -48c27 -22 47 -53 55 -88zM329 172h82c4 0 6 -2 4 -6l-64 -117h61c4 0 5 -3 3 -6l-148 -219h-8l68 179h-60c-4 0 -5 2 -4 6l60 159c2 3 3 4 6 4z" />
    <glyph glyph-name="z" unicode="z" horiz-adv-x="920" 
d="M596 562v-57c0 -13 -11 -23 -24 -23s-23 10 -23 23v57c0 13 10 24 23 24s24 -11 24 -24zM783 465l-40 -40c-12 -12 -27 -7 -34 0c-9 9 -9 24 0 33l41 41c9 9 24 9 33 0s9 -24 0 -34zM380 447l-18 18c-9 9 -9 24 0 33c9 10 24 10 33 0l18 -17c9 -10 9 -25 0 -34
c-10 -10 -23 -10 -33 0zM265 232l-15 -2c-32 -3 -60 -23 -73 -52c-2 -3 -3 -4 -6 -4h-40c-4 0 -5 2 -4 6c18 53 57 83 100 94c17 76 84 131 163 131c27 0 52 -7 75 -18c27 30 66 47 107 47c81 0 146 -65 146 -146c0 -34 -11 -66 -32 -92l6 -16c1 -4 0 -6 -4 -6h-40
c-3 0 -4 1 -6 4c-14 31 -45 53 -82 53h-45c-3 0 -5 2 -5 5l-2 16c-7 60 -58 105 -118 105c-61 0 -112 -45 -118 -106l-2 -14c0 -4 -1 -5 -5 -5zM551 278h9c38 0 72 -15 97 -40c9 15 14 32 14 50c0 54 -44 99 -99 99c-26 0 -50 -10 -68 -28c23 -21 39 -49 47 -81zM790 312h57
c13 0 23 -11 23 -24s-10 -24 -23 -24h-57c-13 0 -24 11 -24 24s11 24 24 24zM765 129l18 -18c9 -9 9 -24 0 -34c-11 -9 -24 -9 -33 0l-18 18c-10 9 -10 24 0 34c9 9 24 9 33 0zM670 87h-523c-13 0 -24 11 -24 24s11 23 24 23h523c13 0 23 -10 23 -23s-10 -24 -23 -24zM74 47
h523c13 0 24 -10 24 -24c0 -13 -11 -23 -24 -23h-523c-13 0 -24 10 -24 23c0 14 11 24 24 24zM196 -40h523c13 0 24 -10 24 -23s-11 -24 -24 -24h-523c-13 0 -24 11 -24 24s11 23 24 23z" />
    <glyph glyph-name="zero" unicode="0" horiz-adv-x="639" 
d="M296 326v-57c0 -13 10 -24 23 -24c14 0 24 11 24 24v57c0 13 -10 24 -24 24c-13 0 -23 -11 -23 -24zM109 229l40 -40c9 -9 25 -10 33 0c10 9 10 24 0 33l-40 40c-9 10 -24 10 -33 0c-9 -9 -9 -24 0 -33zM497 262l-41 -40c-9 -9 -9 -24 0 -33c12 -12 27 -7 34 0l40 40
c9 9 9 24 0 33c-9 10 -24 10 -33 0zM454 90h-40c-3 0 -4 1 -6 4c-16 33 -49 56 -89 56c-39 0 -72 -23 -88 -56c-2 -3 -3 -4 -6 -4h-40c-4 0 -5 2 -4 6c18 59 73 102 138 102c66 0 121 -43 139 -102c1 -4 0 -6 -4 -6zM74 0h491c13 0 24 11 24 24s-11 23 -24 23h-491
c-13 0 -24 -10 -24 -23s11 -24 24 -24z" />
    <glyph glyph-name="one" unicode="1" horiz-adv-x="596" 
d="M274 561v-57c0 -13 11 -23 24 -23s24 10 24 23v57c0 13 -11 24 -24 24s-24 -11 -24 -24zM87 464l41 -40c9 -9 24 -9 33 0s9 24 0 33l-40 41c-9 9 -24 9 -34 0c-9 -10 -9 -25 0 -34zM475 498l-40 -41c-9 -9 -9 -24 0 -33s23 -9 33 0l41 40c9 9 9 24 0 34
c-10 9 -25 9 -34 0zM298 141c80 0 146 65 146 146c0 80 -66 146 -146 146s-146 -66 -146 -146c0 -81 66 -146 146 -146zM298 385c54 0 99 -44 99 -98c0 -55 -45 -99 -99 -99s-99 44 -99 99c0 54 45 98 99 98zM24 263h57c13 0 23 11 23 24s-10 24 -23 24h-57
c-13 0 -24 -11 -24 -24s11 -24 24 -24zM515 263h57c13 0 24 11 24 24s-11 24 -24 24h-57c-13 0 -23 -11 -23 -24s10 -24 23 -24zM128 150l-41 -40c-9 -10 -9 -25 0 -34c11 -9 23 -9 34 0l40 40c9 10 9 25 0 34s-24 9 -33 0zM435 116l40 -40c11 -9 23 -9 34 0c9 9 9 24 0 34
l-41 40c-9 9 -24 9 -33 0s-9 -24 0 -34zM274 69v-56c0 -14 11 -24 24 -24s24 10 24 24v56c0 14 -11 24 -24 24s-24 -10 -24 -24z" />
    <glyph glyph-name="two" unicode="2" horiz-adv-x="696" 
d="M372 562v-57c0 -13 -11 -24 -24 -24s-24 11 -24 24v57c0 13 11 23 24 23s24 -10 24 -23zM177 424l-40 41c-9 9 -9 24 0 33s24 9 34 0l40 -40c9 -9 9 -25 0 -34c-13 -10 -26 -6 -34 0zM559 465l-41 -41c-9 -9 -24 -9 -33 0c-9 10 -9 25 0 34l40 40c9 9 24 9 34 0
c9 -9 9 -24 0 -33zM347 49h-167c-48 0 -87 39 -87 87c0 39 25 71 61 82c8 27 25 48 48 61v8c0 81 65 146 146 146c80 0 146 -65 146 -146c0 -50 -26 -95 -66 -121c4 -10 5 -20 5 -30c0 -48 -38 -87 -86 -87zM400 204c28 17 46 48 46 83c0 55 -44 99 -98 99
c-53 0 -96 -41 -99 -94h3c45 0 84 -28 98 -70c19 0 36 -7 50 -18zM74 311h41c13 0 24 -10 24 -24c0 -13 -11 -23 -24 -23h-41c-14 0 -24 10 -24 23c0 14 10 24 24 24zM565 311h57c13 0 24 -10 24 -24c0 -13 -11 -23 -24 -23h-57c-13 0 -23 10 -23 23c0 14 10 24 23 24z
M180 96h167c21 0 39 18 39 40c0 21 -18 39 -39 39h-32c-3 0 -5 2 -6 5l-2 16c-3 28 -26 49 -55 49c-28 0 -51 -21 -54 -49l-2 -14c0 -4 -1 -5 -5 -5l-15 -2c-20 -2 -35 -19 -35 -39c0 -22 17 -40 39 -40zM518 151l41 -41c9 -9 9 -24 0 -33c-12 -12 -27 -7 -34 0l-40 40
c-9 9 -9 24 0 34c9 9 24 9 33 0z" />
    <glyph glyph-name="three" unicode="3" horiz-adv-x="820" 
d="M641 361h5c69 0 124 -56 124 -124c0 -65 -51 -119 -116 -123c-3 0 -5 2 -5 5v37c0 3 2 5 5 5c39 4 69 37 69 76c0 42 -35 76 -77 76h-46l-3 21c-5 52 -48 91 -100 91c-26 0 -51 -11 -69 -28c-2 -2 -4 -2 -7 -1c-11 7 -23 13 -35 18c-4 1 -5 4 -2 7c28 32 68 51 113 51
c68 0 127 -47 144 -111zM188 0h301c76 0 138 62 138 138s-62 138 -138 138h-9c-18 73 -84 126 -161 126c-79 0 -146 -54 -162 -130c-62 -14 -107 -69 -107 -134c0 -76 62 -138 138 -138zM199 235l2 14c6 61 57 106 118 106s111 -45 118 -106l2 -16c0 -3 2 -5 5 -5h45
c50 0 91 -40 91 -90s-41 -90 -91 -90h-301c-50 0 -91 40 -91 90c0 47 36 86 82 90l15 2c4 0 5 1 5 5z" />
    <glyph glyph-name="four" unicode="4" horiz-adv-x="405" 
d="M287 452h59c4 0 6 -2 4 -6l-47 -87h45c4 0 5 -3 3 -6l-112 -165h-6l51 136h-44c-4 0 -5 2 -4 6l45 118c2 3 3 4 6 4zM120 400h82c4 0 6 -2 4 -6l-64 -117h61c4 0 5 -3 3 -6l-148 -219h-8l67 179h-59c-4 0 -5 2 -4 6l60 159c2 3 3 4 6 4z" />
    <glyph glyph-name="five" unicode="5" horiz-adv-x="313" 
d="M227 399c0 18 -26 45 -26 45s-27 -27 -27 -45c0 -15 12 -26 27 -26c14 0 26 11 26 26zM129 325c0 26 -39 67 -39 67s-40 -41 -40 -67c0 -22 18 -40 40 -40s39 18 39 40zM263 214c0 44 -65 103 -65 103s-65 -59 -65 -103c0 -36 29 -65 65 -65s65 29 65 65z" />
    <glyph glyph-name="six" unicode="6" horiz-adv-x="392" 
d="M219 402h-23c-81 0 -146 -66 -146 -146c0 -81 65 -146 146 -146c80 0 146 65 145 146v20c0 3 -2 5 -5 5l-17 1c-52 2 -93 44 -94 96l-1 18c0 3 -2 5 -5 6zM180 353c11 -57 55 -103 113 -115c-9 -46 -49 -81 -97 -81c-54 0 -99 45 -99 99c0 49 36 90 83 97z" />
    <glyph glyph-name="seven" unicode="7" horiz-adv-x="696" 
d="M324 432v-56c0 -14 11 -24 24 -24s24 10 24 24v56c0 14 -11 24 -24 24s-24 -10 -24 -24zM137 335l41 -40c10 -9 24 -9 33 0s9 24 0 34l-40 40c-9 9 -24 9 -34 0c-9 -9 -9 -24 0 -34zM525 369l-40 -40c-9 -10 -9 -25 0 -34s23 -9 33 0l41 40c9 10 9 25 0 34
c-10 9 -25 9 -34 0zM473 90h-46c-4 0 -5 3 -3 6c14 17 23 39 23 62c0 55 -45 99 -99 99s-99 -44 -99 -99c0 -23 9 -45 23 -62c2 -3 1 -6 -3 -6h-46c-3 0 -5 1 -6 4c-10 19 -15 41 -15 64c0 81 66 146 146 146s146 -65 146 -146c0 -23 -5 -45 -15 -64c-1 -3 -3 -4 -6 -4z
M74 134h57c13 0 23 11 23 24s-10 24 -23 24h-57c-13 0 -24 -11 -24 -24s11 -24 24 -24zM565 134h57c13 0 24 11 24 24s-11 24 -24 24h-57c-13 0 -23 -11 -23 -24s10 -24 23 -24zM413 0h82c13 0 24 11 24 24s-11 23 -24 23h-67l-77 71c-3 2 -5 2 -8 0l-76 -71h-64
c-13 0 -24 -10 -24 -23s11 -24 24 -24h79c3 0 5 1 7 2l58 55l59 -55c2 -1 4 -2 7 -2z" />
    <glyph glyph-name="eight" unicode="8" horiz-adv-x="696" 
d="M324 431v-57c0 -13 11 -24 24 -24s24 11 24 24v57c0 13 -11 24 -24 24s-24 -11 -24 -24zM137 334l41 -40c10 -9 24 -9 33 0s12 22 0 33l-40 40c-9 10 -24 10 -34 0c-9 -9 -9 -24 0 -33zM525 367l-40 -40c-9 -9 -9 -24 0 -33s23 -9 33 0l41 40c9 9 9 24 0 33
c-10 10 -25 10 -34 0zM473 89h-46c-4 0 -5 3 -2 6c13 16 22 38 22 62c0 54 -45 98 -99 98s-99 -44 -99 -98c0 -24 9 -46 22 -62c3 -3 2 -6 -2 -6h-46c-3 0 -5 1 -6 4c-10 19 -15 40 -15 64c0 80 66 146 146 146s146 -66 146 -146c0 -24 -5 -45 -15 -64c-1 -3 -3 -4 -6 -4z
M74 133h57c13 0 23 11 23 24s-10 23 -23 23h-57c-13 0 -24 -10 -24 -23s11 -24 24 -24zM565 133h57c13 0 24 11 24 24s-11 23 -24 23h-57c-13 0 -23 -10 -23 -23s10 -24 23 -24zM267 0l76 -70c3 -2 5 -2 8 0l77 70h66c13 0 24 11 24 24s-11 24 -24 24h-81c-3 0 -5 -1 -7 -2
l-59 -55l-58 55c-2 1 -4 2 -7 2h-79c-13 0 -24 -11 -24 -24s11 -24 24 -24h64z" />
    <glyph glyph-name="nine" unicode="9" horiz-adv-x="696" 
d="M324 437v-57c0 -13 11 -24 24 -24s24 11 24 24v57c0 13 -11 24 -24 24s-24 -11 -24 -24zM137 340l41 -40c9 -9 24 -9 33 0s9 24 0 33l-40 40c-9 10 -24 10 -34 0c-9 -9 -9 -24 0 -33zM525 373l-40 -40c-9 -9 -9 -24 0 -33s24 -8 33 0l41 40c9 9 9 24 0 33
c-10 10 -25 10 -34 0zM473 95h-46c-4 0 -5 3 -2 6c13 16 22 38 22 62c0 54 -45 98 -99 98s-99 -44 -99 -98c0 -24 9 -46 22 -62c3 -3 2 -6 -2 -6h-46c-3 0 -5 1 -6 4c-10 19 -15 40 -15 64c0 80 66 146 146 146s146 -66 146 -146c0 -24 -5 -45 -15 -64c-1 -3 -3 -4 -6 -4z
M74 139h57c13 0 23 11 23 24s-10 23 -23 23h-57c-13 0 -24 -10 -24 -23s11 -24 24 -24zM565 139h57c13 0 24 11 24 24s-11 23 -24 23h-57c-13 0 -23 -10 -23 -23s10 -24 23 -24zM99 0h498c13 0 24 11 24 24s-11 23 -24 23h-498c-13 0 -24 -10 -24 -23s11 -24 24 -24z" />
    <glyph glyph-name="asterisk" unicode="*" 
d="M480 275h9c76 0 138 -62 138 -138c0 -74 -59 -134 -133 -137c-3 0 -5 2 -5 5v37c0 3 2 5 5 5c48 3 86 42 86 90c0 50 -41 91 -91 91h-45c-3 0 -5 2 -5 5l-2 16c-7 60 -58 105 -118 105c-61 0 -112 -45 -118 -106l-2 -14c0 -4 -1 -5 -5 -5l-15 -2c-46 -4 -82 -43 -82 -90
c0 -48 38 -87 86 -90c3 0 5 -2 5 -5v-37c0 -3 -2 -5 -5 -5c-74 3 -133 63 -133 137c0 65 45 120 106 134c17 76 84 131 163 131c77 0 143 -54 161 -127zM310 157l12 11c-30 -3 -52 -34 -52 -66c0 -37 31 -68 68 -68c38 0 68 31 68 68c0 13 11 24 24 24s24 -11 24 -24
c0 -63 -52 -115 -116 -115c-63 0 -115 52 -115 115c0 58 42 105 97 114l-10 10c-9 9 -9 24 0 33c10 10 24 10 34 0l51 -51c4 -4 7 -10 7 -17c0 -6 -3 -12 -7 -16l-51 -52c-13 -10 -27 -8 -34 0c-9 11 -9 25 0 34z" />
    <glyph glyph-name="backslash" unicode="\" 
d="M480 275h9c76 0 138 -61 138 -137c0 -74 -59 -135 -133 -138c-3 0 -5 2 -5 5v37c0 3 2 5 5 5c48 3 86 43 86 91c0 49 -41 90 -91 90h-45c-3 0 -5 2 -5 5l-2 16c-7 60 -58 106 -118 106c-61 0 -112 -46 -118 -106l-2 -16c0 -3 -2 -5 -5 -5h-15c-46 -5 -82 -43 -82 -90
c0 -48 38 -88 86 -91c3 0 5 -2 5 -5v-37c0 -3 -2 -5 -5 -5c-74 3 -133 64 -133 138c0 65 45 120 106 134c17 75 84 130 163 130c77 0 143 -53 161 -127zM355 209l72 -72c9 -9 9 -26 0 -34c-13 -10 -26 -6 -34 0l-31 31v-110c0 -13 -11 -24 -24 -24s-23 11 -23 24v111
l-31 -32c-10 -9 -25 -9 -34 0c-9 10 -9 25 0 34l72 72c9 9 24 9 33 0z" />
    <glyph glyph-name="bullet" unicode="&#x2022;" 
d="M480 275h9c76 0 138 -61 138 -137c0 -74 -59 -135 -133 -138c-3 0 -5 2 -5 5v37c0 3 2 5 5 5c48 3 86 43 86 91c0 49 -41 90 -91 90h-45c-3 0 -5 2 -5 5l-2 16c-7 60 -58 106 -118 106c-61 0 -112 -46 -118 -106l-2 -15c0 -3 -2 -5 -5 -5l-15 -1c-46 -5 -82 -43 -82 -90
c0 -48 38 -88 86 -91c3 0 5 -2 5 -5v-37c0 -3 -2 -5 -5 -5c-74 3 -133 64 -133 138c0 65 45 120 106 134c17 75 84 130 163 130c77 0 143 -53 161 -127zM362 81l31 31c10 9 25 9 34 0s9 -24 0 -33l-72 -72c-4 -5 -11 -7 -17 -7s-12 2 -16 7l-72 72c-9 9 -9 24 0 33
s24 9 34 0l31 -31v111c0 13 10 23 23 23s24 -10 24 -23v-111z" />
    <glyph glyph-name="colon" unicode=":" horiz-adv-x="648" 
d="M598 461c0 -37 -35 -65 -86 -83c1 -5 2 -10 2 -15c0 -41 -48 -70 -112 -85c2 -6 3 -11 3 -16c0 -55 -92 -80 -177 -80c-86 0 -178 25 -178 80c0 13 6 34 36 51c-18 14 -28 31 -28 50c0 18 9 42 45 62c-8 11 -12 23 -12 36c0 71 127 108 253 108s254 -37 254 -108z
M344 400c134 0 207 40 207 61s-73 61 -207 61c-133 0 -206 -40 -206 -61s73 -61 206 -61zM466 363v2c-38 -8 -80 -12 -122 -12c-75 0 -151 13 -199 39c-29 -11 -40 -24 -40 -29c0 -15 62 -51 181 -51s180 36 180 51zM143 285l-3 -1c-32 -9 -42 -20 -43 -22
c3 -8 48 -32 131 -32c82 0 126 24 130 33l-7 6c-21 -3 -43 -4 -65 -4c-51 0 -102 7 -143 20zM282 173c14 0 24 -11 24 -24c0 -41 -61 -59 -121 -59s-120 18 -120 59c0 10 3 24 22 37c11 7 25 4 33 -7c6 -9 5 -22 -3 -30c11 -5 35 -12 68 -12c41 0 67 10 74 16
c2 11 12 20 23 20zM267 74c13 0 24 -11 24 -24c0 -37 -52 -50 -96 -50s-95 13 -95 50c0 13 10 24 23 24c11 0 20 -8 23 -18c6 -3 23 -9 49 -9c27 0 44 6 49 9c3 10 12 18 23 18z" />
    <glyph glyph-name="comma" unicode="," horiz-adv-x="730" 
d="M74 274h531c15 0 27 12 27 27s-12 27 -27 27c-7 0 -14 -3 -19 -8c-9 -9 -24 -9 -33 0c-10 9 -10 24 0 34c14 14 32 21 52 21c41 0 75 -33 75 -74s-34 -74 -75 -74h-531c-13 0 -24 10 -24 23s11 24 24 24zM74 187h389c41 0 75 -34 75 -75s-34 -74 -75 -74
c-20 0 -38 8 -52 22c-10 9 -10 24 0 33c9 9 24 9 33 0c5 -5 12 -8 19 -8c15 0 27 12 27 27s-12 27 -27 27h-389c-13 0 -24 11 -24 24s11 24 24 24z" />
    <glyph glyph-name="ellipsis" unicode="&#x2026;" horiz-adv-x="727" 
d="M147 257h366c13 0 23 11 23 24s-10 23 -23 23h-366c-13 0 -24 -10 -24 -23s11 -24 24 -24zM74 170h366c13 0 23 10 23 23c0 14 -10 24 -23 24h-366c-13 0 -24 -10 -24 -24c0 -13 11 -23 24 -23zM516 170h137c13 0 24 10 24 23c0 14 -11 24 -24 24h-137
c-14 0 -24 -10 -24 -24c0 -13 10 -23 24 -23zM196 83h366c13 0 24 11 24 24s-11 23 -24 23h-366c-13 0 -24 -10 -24 -23s11 -24 24 -24z" />
    <glyph glyph-name="exclam" unicode="!" horiz-adv-x="793" 
d="M265 316l-15 -2c-32 -3 -60 -23 -73 -52c-2 -3 -3 -4 -6 -4h-40c-4 0 -5 2 -4 6v-1c14 48 53 84 100 95c17 76 84 131 163 131c23 0 44 -5 64 -13c33 54 98 82 160 67l23 -7c3 -1 5 -3 4 -6l-4 -17c-12 -51 18 -102 68 -116l17 -6c3 0 5 -3 4 -6l-5 -19
c-7 -28 -21 -53 -42 -72c5 -9 9 -20 13 -30c1 -4 0 -6 -4 -6h-40c-3 0 -4 1 -6 4c-14 31 -45 53 -82 53h-45c-3 0 -5 2 -5 5l-2 16c-7 60 -58 105 -118 105c-61 0 -112 -45 -118 -106l-2 -14c0 -4 -1 -5 -5 -5zM551 362h9c34 0 64 -12 88 -32c9 9 16 19 21 30
c-53 25 -85 81 -82 139c-37 3 -73 -16 -92 -48c27 -22 47 -53 56 -89zM670 171h-523c-13 0 -24 11 -24 24s11 23 24 23h523c13 0 23 -10 23 -23s-10 -24 -23 -24zM74 132h523c13 0 24 -10 24 -24c0 -13 -11 -23 -24 -23h-523c-13 0 -24 10 -24 23c0 14 11 24 24 24zM196 45
h523c13 0 24 -10 24 -23s-11 -24 -24 -24h-523c-13 0 -24 11 -24 24s11 23 24 23z" />
    <glyph glyph-name="exclamdown" unicode="&#xa1;" horiz-adv-x="265" 
d="M133 259c45 0 82 37 82 83s-37 83 -82 83c-46 0 -83 -37 -83 -83s37 -83 83 -83zM133 385c23 0 43 -19 43 -43s-20 -43 -43 -43c-24 0 -43 19 -43 43s19 43 43 43z" />
    <glyph glyph-name="numbersign" unicode="#" horiz-adv-x="528" 
d="M264 0c118 0 214 96 214 214s-96 214 -214 214s-214 -96 -214 -214s96 -214 214 -214zM264 381c92 0 167 -75 167 -167s-75 -167 -167 -167s-167 75 -167 167s75 167 167 167zM195 137l66 25c2 1 4 1 6 0l66 -25c4 -2 6 1 5 5l-71 167c-1 4 -5 4 -6 0l-71 -167
c-1 -4 1 -7 5 -5z" />
    <glyph glyph-name="period" unicode="." horiz-adv-x="528" 
d="M113 63c83 -84 219 -84 302 0c84 83 84 219 0 302c-83 84 -219 84 -302 0c-84 -83 -84 -219 0 -302zM382 332c65 -65 65 -171 0 -236s-171 -65 -236 0s-65 171 0 236s171 65 236 0zM161 208l64 -29c2 -1 3 -2 4 -4l29 -64c2 -4 6 -4 7 0l69 168c1 4 -1 6 -5 5l-168 -69
c-4 -1 -4 -5 0 -7z" />
    <glyph glyph-name="periodcentered" unicode="&#xb7;" horiz-adv-x="528" 
d="M50 214c0 -118 96 -214 214 -214s214 96 214 214s-96 214 -214 214s-214 -96 -214 -214zM431 214c0 -92 -75 -167 -167 -167s-167 75 -167 167s75 167 167 167s167 -75 167 -167zM187 283l25 -66c1 -2 1 -4 0 -6l-25 -66c-2 -4 1 -6 5 -5l167 71c4 1 4 5 0 6l-167 71
c-4 1 -7 -1 -5 -5z" />
    <glyph glyph-name="question" unicode="?" horiz-adv-x="528" 
d="M113 365c-84 -83 -84 -219 0 -302c83 -84 219 -84 302 0c84 83 84 219 0 302c-83 84 -219 84 -302 0zM382 96c-65 -65 -171 -65 -236 0s-65 171 0 236s171 65 236 0s65 -171 0 -236zM258 317l-29 -64c-1 -2 -2 -3 -4 -4l-64 -29c-4 -2 -4 -6 0 -7l168 -69c4 -1 6 1 5 5
l-69 168c-1 4 -5 4 -7 0z" />
    <glyph glyph-name="questiondown" unicode="&#xbf;" horiz-adv-x="528" 
d="M264 428c-118 0 -214 -96 -214 -214s96 -214 214 -214s214 96 214 214s-96 214 -214 214zM264 47c-92 0 -167 75 -167 167s75 167 167 167s167 -75 167 -167s-75 -167 -167 -167zM333 291l-66 -25c-2 -1 -4 -1 -6 0l-66 25c-4 2 -6 -1 -5 -5l71 -167c1 -4 5 -4 6 0
l71 167c1 4 -1 7 -5 5z" />
    <glyph glyph-name="quotedbl" unicode="&#x22;" horiz-adv-x="528" 
d="M415 365c-83 84 -219 84 -302 0c-84 -83 -84 -219 0 -302c83 -84 219 -84 302 0c84 83 84 219 0 302zM146 96c-65 65 -65 171 0 236s171 65 236 0s65 -171 0 -236s-171 -65 -236 0zM367 220l-64 29c-2 1 -3 2 -4 4l-29 64c-2 4 -6 4 -7 0l-69 -168c-1 -4 1 -6 5 -5
l168 69c4 1 4 5 0 7z" />
    <glyph glyph-name="quotesingle" unicode="'" horiz-adv-x="528" 
d="M478 214c0 118 -96 214 -214 214s-214 -96 -214 -214s96 -214 214 -214s214 96 214 214zM97 214c0 92 75 167 167 167s167 -75 167 -167s-75 -167 -167 -167s-167 75 -167 167zM341 145l-25 66c-1 2 -1 4 0 6l25 66c2 4 -1 6 -5 5l-167 -71c-4 -1 -4 -5 0 -6l167 -71
c4 -1 7 1 5 5z" />
    <glyph glyph-name="semicolon" unicode=";" horiz-adv-x="528" 
d="M415 63c84 83 84 219 0 302c-83 84 -219 84 -302 0c-84 -83 -84 -219 0 -302c83 -84 219 -84 302 0zM146 332c65 65 171 65 236 0s65 -171 0 -236s-171 -65 -236 0s-65 171 0 236zM270 111l29 64c1 2 2 3 4 4l64 29c4 2 4 6 0 7l-168 69c-4 1 -6 -1 -5 -5l69 -168
c1 -4 5 -4 7 0z" />
    <glyph glyph-name="slash" unicode="/" 
d="M480 275h9c76 0 138 -61 138 -137c0 -74 -59 -135 -133 -138c-3 0 -5 2 -5 5v37c0 3 2 5 5 5c48 3 86 43 86 91c0 49 -41 90 -91 90h-45c-3 0 -5 2 -5 5l-2 16c-7 60 -58 106 -118 106c-61 0 -112 -46 -118 -106l-2 -16c0 -3 -2 -5 -5 -5h-15c-46 -5 -82 -43 -82 -90
c0 -48 38 -88 86 -91c3 0 5 -2 5 -5v-37c0 -3 -2 -5 -5 -5c-74 3 -133 64 -133 138c0 65 45 120 106 134c17 75 84 130 163 130c77 0 143 -53 161 -127z" />
    <glyph glyph-name="braceleft" unicode="{" horiz-adv-x="392" 
d="M161 232l11 10c-40 -3 -74 -49 -74 -95c0 -54 44 -99 98 -99c55 0 99 45 99 99c0 13 11 24 24 24s23 -11 23 -24c0 -81 -65 -146 -146 -146c-80 0 -146 65 -146 146c0 72 53 132 122 144l-11 10c-9 9 -9 24 0 34c10 9 25 9 34 0l51 -52c5 -4 7 -10 7 -16
c0 -7 -2 -13 -7 -17l-51 -51c-12 -12 -27 -7 -34 0c-9 9 -9 24 0 33z" />
    <glyph glyph-name="braceright" unicode="}" horiz-adv-x="318" 
d="M261 251l-51 -51c-9 -9 -25 -9 -33 0c-9 10 -10 24 0 33l11 11c-49 0 -91 -46 -91 -98c0 -54 44 -99 99 -99c13 0 23 -10 23 -23s-10 -24 -23 -24c-81 0 -146 65 -146 146c0 78 60 141 137 146l-10 10c-10 9 -10 24 0 34c9 9 24 9 33 0l51 -52c5 -4 7 -10 7 -16
c0 -7 -2 -13 -7 -17z" />
    <glyph glyph-name="bracketleft" unicode="[" horiz-adv-x="291" 
d="M162 313l72 -71c9 -9 9 -24 0 -34c-11 -9 -23 -9 -34 0l-31 32v-194c0 -13 -10 -24 -23 -24c-14 0 -24 11 -24 24v194l-31 -32c-10 -9 -25 -9 -34 0c-9 10 -9 25 0 34l72 71c9 10 24 10 33 0z" />
    <glyph glyph-name="bracketright" unicode="]" horiz-adv-x="292" 
d="M170 103l31 31c9 9 24 9 33 0c10 -9 10 -24 0 -33l-71 -72c-5 -5 -11 -7 -17 -7s-12 2 -17 7l-71 72c-10 9 -10 24 0 33c9 9 24 9 33 0l31 -31v194c0 13 11 23 24 23s24 -10 24 -23v-194z" />
    <glyph glyph-name="parenleft" unicode="(" horiz-adv-x="398" 
d="M131 195h194c13 0 23 -11 23 -24s-10 -23 -23 -23h-194l31 -32c9 -9 9 -24 0 -33c-12 -12 -27 -7 -34 0l-71 72c-9 9 -9 24 0 33l71 72c10 9 25 9 34 0c9 -10 9 -25 0 -34z" />
    <glyph glyph-name="parenright" unicode=")" horiz-adv-x="399" 
d="M270 260l72 -72c9 -9 9 -24 0 -33l-72 -72c-10 -10 -27 -7 -33 0c-10 9 -10 24 0 33l31 32h-194c-13 0 -24 10 -24 23s11 24 24 24h194l-31 31c-10 9 -10 24 0 34c9 9 24 9 33 0z" />
    <glyph glyph-name="emdash" unicode="&#x2014;" horiz-adv-x="325" 
d="M150 284h101c13 0 24 -11 24 -24v-101c0 -13 -11 -24 -24 -24s-23 11 -23 24v44l-137 -137c-12 -12 -27 -7 -34 0c-9 9 -9 24 0 33l137 137h-44c-13 0 -24 11 -24 24s11 24 24 24z" />
    <glyph glyph-name="endash" unicode="&#x2013;" horiz-adv-x="325" 
d="M97 140l137 137c9 9 24 9 34 0c9 -10 9 -24 0 -34l-137 -137h44c13 0 23 -10 23 -23c0 -14 -10 -24 -23 -24h-102c-13 0 -23 10 -23 24v101c0 13 10 24 23 24c14 0 24 -11 24 -24v-44z" />
    <glyph glyph-name="guilsinglleft" unicode="&#x2039;" horiz-adv-x="586" 
d="M133 255c45 0 82 37 82 83s-37 83 -82 83c-46 0 -83 -37 -83 -83s37 -83 83 -83zM296 417h217c13 0 23 -11 23 -24s-10 -24 -23 -24h-174v-124h130c13 0 24 -10 24 -24c0 -13 -11 -24 -24 -24h-130v-173c0 -13 -11 -24 -24 -24s-24 11 -24 24v388c0 3 2 5 5 5zM133 381
c23 0 43 -19 43 -43s-20 -43 -43 -43c-24 0 -43 19 -43 43s19 43 43 43z" />
    <glyph glyph-name="guilsinglright" unicode="&#x203a;" horiz-adv-x="576" 
d="M315 287v-147c0 -28 8 -92 85 -92c65 0 77 35 78 39c3 13 16 21 29 18s21 -16 18 -29c-1 -3 -19 -76 -125 -76c-98 0 -133 76 -133 140v147c0 65 35 140 133 140c106 0 124 -72 125 -75c3 -13 -5 -26 -18 -29s-26 5 -29 17c-1 5 -13 39 -78 39c-77 0 -85 -64 -85 -92z
M133 259c45 0 82 37 82 83s-37 83 -82 83c-46 0 -83 -37 -83 -83s37 -83 83 -83zM133 385c23 0 43 -19 43 -43s-20 -43 -43 -43c-24 0 -43 19 -43 43s19 43 43 43z" />
    <glyph glyph-name="quotedblleft" unicode="&#x201c;" horiz-adv-x="310" 
d="M96 397v-205c-29 -20 -46 -52 -46 -87c0 -58 47 -105 105 -105s105 47 105 105c0 35 -17 67 -46 87v205c0 32 -26 59 -59 59s-59 -27 -59 -59zM131 175v222c0 13 11 23 24 23s24 -10 24 -23v-222c0 -3 1 -5 3 -6l6 -3c23 -12 37 -35 37 -61c0 -38 -32 -70 -70 -70
s-69 32 -69 70c0 26 13 49 36 61l6 3c2 1 3 3 3 6z" />
    <glyph glyph-name="quotedblright" unicode="&#x201d;" horiz-adv-x="310" 
d="M161 306v-149c25 -3 45 -25 45 -51c0 -29 -23 -52 -51 -52s-51 23 -51 52c0 26 20 48 45 51v149c0 3 3 6 6 6s6 -3 6 -6z" />
    <glyph glyph-name="quoteleft" unicode="&#x2018;" horiz-adv-x="310" 
d="M96 397v-205c-29 -20 -46 -52 -46 -87c0 -58 47 -105 105 -105s105 47 105 105c0 35 -17 67 -46 87v205c0 32 -26 59 -59 59s-59 -27 -59 -59zM131 175v222c0 13 11 23 24 23s24 -10 24 -23v-222c0 -3 1 -5 3 -6l6 -3c23 -12 37 -35 37 -61c0 -38 -32 -70 -70 -70
s-69 32 -69 70c0 26 13 49 36 61l6 3c2 1 3 3 3 6zM161 306v-149c25 -3 45 -25 45 -51c0 -29 -23 -52 -51 -52s-51 23 -51 52c0 26 20 48 45 51v149c0 3 3 6 6 6s6 -3 6 -6z" />
    <glyph glyph-name="space" unicode=" " horiz-adv-x="600" 
 />
  </font>
</defs>
</svg>
